<svg width="86" height="20" viewBox="0 0 86 20" fill="none" xmlns="http://www.w3.org/2000/svg">
<path fill-rule="evenodd" clip-rule="evenodd" d="M0.0858822 19.5412H4.50882C4.35137 19.3837 4.03647 18.8541 4.03647 17.9953V13.2718L10.6494 19.5412H15.8023L9.10352 13.143C11.2076 13.1143 15.4159 10.91 15.4159 6.83062C15.4159 1.3771 10.177 0.0888672 9.10352 0.0888672H0C0.186078 0.389455 0.558235 1.29981 0.558235 2.53651V17.9953C0.558235 18.5965 0.292 19.2664 0.0858822 19.5412ZM4.03653 12.066H8.97476C9.80495 11.5794 11.8948 9.77299 11.8948 6.44076C11.8948 3.10853 9.93377 1.53116 8.97476 1.159H4.03653V12.066Z" fill="white"/>
<path d="M31.2136 19.5964H16.9932C17.3724 19.0093 17.4959 18.2007 17.5103 17.8698V1.94238C17.5103 1.11363 17.1655 0.302148 16.9932 0H31.2136V2.54668C30.9378 2.30496 30.1363 1.94238 29.6192 1.94238H20.9576V8.93495H26.8182C27.5421 8.93495 28.2402 8.58964 28.4988 8.41698V10.8342C27.9472 10.3162 27.1485 10.2155 26.8182 10.2299H20.9576V17.8698H29.1882C30.4638 17.8698 31.0699 17.467 31.2136 17.2655V19.5964Z" fill="white"/>
<path fill-rule="evenodd" clip-rule="evenodd" d="M31.9459 19.6271H34.2647C34.2504 19.3122 34.3076 18.5965 34.4364 18.0383C34.5064 17.735 34.6701 17.3046 34.8267 16.8928C34.9434 16.5858 35.0563 16.2891 35.1235 16.063H43.6258C43.9121 16.5496 44.4847 18.3388 44.4847 19.5841H49.0794C48.8933 19.3408 48.4696 18.7511 48.2635 18.3388C48.0574 17.9266 43.6258 6.00043 41.4358 0.0888672H37.7859L38.7735 2.62239L33.0194 17.7377C32.98 17.8164 32.9336 17.9128 32.8818 18.0203C32.6325 18.538 32.2588 19.3142 31.9459 19.6271ZM43.2809 14.7271L39.4162 4.55003L35.5515 14.7271H43.2809Z" fill="white"/>
<path d="M52.5269 19.5964H50.1157C50.7185 18.2642 50.6324 17.7055 50.6324 16.803V2.1917C50.6324 1.09155 50.2879 0.272172 50.1157 0H52.0102L59.7608 10.5288L67.4252 0H68.9323C68.6222 0.412556 68.4873 1.28924 68.4586 1.67601V17.6196C68.4586 18.2728 68.8318 19.2096 69.0184 19.5964H64.4542C64.7986 19.2526 65.0283 18.1353 65.1 17.6196V6.27428L60.7942 11.9899L61.5692 13.0643L60.4928 14.5469L59.4163 16.0295L52.0102 6.05941V16.803C52.0102 18.1095 52.3547 19.2096 52.5269 19.5964Z" fill="white"/>
<path fill-rule="evenodd" clip-rule="evenodd" d="M70.288 19.5383H74.7968C74.6251 19.2234 74.2815 18.4218 74.2815 17.7347V13.0112H80.2074C81.968 12.8967 85.4892 11.388 85.4892 6.26946C85.4892 1.15087 81.968 -0.0142617 80.2074 0.0429931H70.2451C70.4454 0.329279 70.8462 1.12514 70.8462 2.01832V17.7347C70.8462 18.3359 70.6315 19.0916 70.288 19.5383ZM74.2375 11.6371H79.4334C80.3637 11.2649 82.2245 9.61885 82.2245 6.35533C82.2245 2.71392 79.8628 1.33122 78.961 1.33122H74.2375V11.6371Z" fill="white"/>
<path d="M76.9278 19.3159C76.8605 19.3159 76.8051 19.2941 76.7617 19.2507C76.7182 19.2073 76.6965 19.1519 76.6965 19.0846C76.6965 19.0217 76.7182 18.9685 76.7617 18.925C76.8051 18.8816 76.8605 18.8599 76.9278 18.8599C76.9929 18.8599 77.0461 18.8816 77.0873 18.925C77.1308 18.9685 77.1525 19.0217 77.1525 19.0846C77.1525 19.1519 77.1308 19.2073 77.0873 19.2507C77.0461 19.2941 76.9929 19.3159 76.9278 19.3159Z" fill="white"/>
<path d="M79.0408 19.3159C79.019 19.3159 79.0082 19.305 79.0082 19.2833C79.0082 19.2746 79.0104 19.2572 79.0147 19.2312C79.0212 19.2051 79.0288 19.1845 79.0375 19.1693C79.0874 19.1671 79.1243 19.1628 79.1482 19.1563C79.1721 19.1498 79.184 19.1367 79.184 19.1172C79.184 19.0868 79.1569 19.0347 79.1026 18.9609L78.6988 18.3584L78.2917 18.9576C78.2483 19.0206 78.2266 19.0651 78.2266 19.0911C78.2266 19.128 78.2776 19.1476 78.3796 19.1498C78.3775 19.178 78.3731 19.2051 78.3666 19.2312C78.3623 19.2551 78.3579 19.2724 78.3536 19.2833C78.3471 19.305 78.3351 19.3159 78.3178 19.3159H77.7055C77.6838 19.3159 77.6729 19.305 77.6729 19.2833C77.6729 19.2746 77.6751 19.2572 77.6794 19.2312C77.6859 19.2051 77.6935 19.1845 77.7022 19.1693C77.7804 19.165 77.8488 19.1465 77.9074 19.1139C77.966 19.0792 78.0225 19.0217 78.0768 18.9413L78.5881 18.1955L78.0637 17.4139C78.0225 17.3531 77.9877 17.3086 77.9595 17.2804C77.9313 17.2522 77.8998 17.2326 77.8651 17.2218C77.8303 17.2109 77.7826 17.2044 77.7218 17.2022C77.7218 17.1436 77.7261 17.0991 77.7348 17.0687C77.7413 17.047 77.7533 17.0361 77.7706 17.0361H78.4838C78.5056 17.0361 78.5164 17.047 78.5164 17.0687C78.5164 17.0774 78.5132 17.0948 78.5066 17.1208C78.5023 17.1469 78.4958 17.1675 78.4871 17.1827C78.3981 17.1849 78.3536 17.2066 78.3536 17.2478C78.3536 17.2782 78.3753 17.3238 78.4187 17.3846L78.7998 17.9513L79.171 17.3944C79.2144 17.3314 79.2362 17.2869 79.2362 17.2608C79.2362 17.2239 79.1851 17.2044 79.0831 17.2022C79.0853 17.174 79.0896 17.1479 79.0961 17.1241C79.1026 17.098 79.107 17.0796 79.1091 17.0687C79.1157 17.047 79.1276 17.0361 79.145 17.0361H79.7605C79.7822 17.0361 79.7931 17.047 79.7931 17.0687C79.7931 17.0774 79.7898 17.0948 79.7833 17.1208C79.7789 17.1469 79.7724 17.1675 79.7637 17.1827C79.6856 17.187 79.6172 17.2055 79.5586 17.2381C79.5021 17.2706 79.4457 17.3282 79.3892 17.4107L78.9072 18.1109L79.4609 18.9381C79.5021 18.9967 79.5379 19.0412 79.5683 19.0716C79.6009 19.0998 79.6357 19.1194 79.6726 19.1302C79.7116 19.1389 79.7616 19.1454 79.8224 19.1498C79.8224 19.2084 79.818 19.2529 79.8093 19.2833C79.8028 19.305 79.7909 19.3159 79.7735 19.3159H79.0408Z" fill="white"/>
<path d="M80.738 19.3159C80.7163 19.3159 80.7055 19.305 80.7055 19.2833C80.7055 19.2746 80.7076 19.2572 80.712 19.2312C80.7185 19.2051 80.7261 19.1845 80.7348 19.1693C80.8303 19.165 80.8954 19.1432 80.9302 19.1042C80.9649 19.0629 80.9823 18.9978 80.9823 18.9088V18.3421L80.4026 17.4139C80.3613 17.3531 80.3288 17.3086 80.3049 17.2804C80.281 17.2522 80.2549 17.2326 80.2267 17.2218C80.1985 17.2109 80.1562 17.2044 80.0997 17.2022C80.0997 17.1436 80.104 17.0991 80.1127 17.0687C80.1192 17.047 80.1312 17.0361 80.1486 17.0361H80.826C80.8477 17.0361 80.8585 17.047 80.8585 17.0687C80.8585 17.0774 80.8553 17.0948 80.8488 17.1208C80.8444 17.1469 80.8379 17.1675 80.8292 17.1827C80.7445 17.187 80.7022 17.2153 80.7022 17.2674C80.7022 17.2978 80.7163 17.3368 80.7445 17.3846L81.194 18.1011C81.2005 18.1119 81.207 18.1119 81.2135 18.1011L81.6011 17.3944C81.6184 17.3596 81.6325 17.3314 81.6434 17.3097C81.6543 17.288 81.6597 17.2695 81.6597 17.2543C81.6597 17.2348 81.6477 17.2218 81.6239 17.2153C81.6 17.2087 81.562 17.2044 81.5099 17.2022C81.512 17.174 81.5164 17.1479 81.5229 17.1241C81.5294 17.098 81.5338 17.0796 81.5359 17.0687C81.5424 17.047 81.5544 17.0361 81.5718 17.0361H82.1515C82.1732 17.0361 82.184 17.047 82.184 17.0687C82.184 17.0774 82.1808 17.0948 82.1742 17.1208C82.1699 17.1469 82.1634 17.1675 82.1547 17.1827C82.0896 17.187 82.0277 17.2044 81.9691 17.2348C81.9126 17.2652 81.8594 17.3238 81.8095 17.4107L81.2982 18.3128V18.9088C81.2982 19.0043 81.3025 19.0662 81.3112 19.0944C81.3199 19.1226 81.3405 19.1389 81.3731 19.1432C81.3948 19.1454 81.423 19.1476 81.4578 19.1498C81.4947 19.1498 81.524 19.1498 81.5457 19.1498C81.5457 19.2084 81.5414 19.2529 81.5327 19.2833C81.5262 19.305 81.5142 19.3159 81.4968 19.3159H80.738Z" fill="white"/>
<path d="M82.6705 19.3159C82.6184 19.3159 82.5924 19.2887 82.5924 19.2344V19.1693L83.8137 17.2185L82.9571 17.2315C82.905 17.2315 82.8703 17.2391 82.8529 17.2543C82.8377 17.2695 82.8247 17.3032 82.8138 17.3553L82.7878 17.4921C82.7834 17.516 82.7672 17.5279 82.7389 17.5279C82.7281 17.5279 82.7096 17.5257 82.6836 17.5214C82.6575 17.517 82.638 17.5116 82.625 17.5051L82.651 17.1013C82.6532 17.0774 82.6586 17.0611 82.6673 17.0524C82.676 17.0416 82.6923 17.0361 82.7161 17.0361H84.1459C84.1893 17.0361 84.211 17.0578 84.211 17.1013V17.1566L82.9865 19.127L83.8951 19.1107C83.958 19.1085 84.0047 19.0944 84.0351 19.0683C84.0677 19.0423 84.0937 19.0054 84.1133 18.9576L84.1784 18.7948C84.1893 18.7709 84.2056 18.759 84.2273 18.759C84.2381 18.759 84.2555 18.7622 84.2794 18.7687C84.3033 18.7731 84.3217 18.7785 84.3347 18.785L84.2533 19.2377C84.2425 19.2898 84.2121 19.3159 84.1621 19.3159H82.6705Z" fill="white"/>
<path fill-rule="evenodd" clip-rule="evenodd" d="M78.9783 19.2246L78.9787 19.2231C78.9856 19.1953 78.9943 19.1711 79.0053 19.1519L79.0154 19.1341L79.0359 19.1332C79.0852 19.1311 79.1187 19.1268 79.1384 19.1214C79.1433 19.1201 79.1458 19.1188 79.1469 19.1181C79.1469 19.1121 79.1437 19.0981 79.1308 19.0734C79.1184 19.0497 79.0993 19.0199 79.0727 18.9838L79.0718 18.9825L78.6986 18.4256L78.3222 18.9796C78.3011 19.0103 78.2859 19.0355 78.2762 19.0554C78.2663 19.0757 78.2638 19.087 78.2636 19.0917C78.2648 19.0929 78.2686 19.0962 78.2781 19.0998C78.2975 19.1072 78.3306 19.1126 78.3804 19.1136L78.4196 19.1145L78.4166 19.1536C78.4143 19.1833 78.4097 19.2121 78.4029 19.2399C78.3987 19.2629 78.394 19.2823 78.3886 19.2965C78.3841 19.3108 78.3768 19.3251 78.3647 19.3361C78.3513 19.3482 78.3349 19.3539 78.3177 19.3539H77.7055C77.6889 19.3539 77.6697 19.3497 77.6548 19.3349C77.64 19.3201 77.6358 19.3008 77.6358 19.2842C77.6358 19.272 77.6386 19.2515 77.6428 19.226L77.6431 19.2246L77.6434 19.2231C77.6504 19.1953 77.659 19.1711 77.67 19.1519L77.68 19.1343L77.7002 19.1332C77.7734 19.1292 77.836 19.112 77.8889 19.0827C77.9411 19.0517 77.9937 18.9989 78.046 18.9215L78.0461 18.9213L78.5432 18.1963L78.033 17.4357C78.033 17.4357 78.033 17.4357 78.033 17.4357C77.9922 17.3756 77.959 17.3333 77.9333 17.3076C77.9089 17.2832 77.8825 17.267 77.854 17.2581C77.8238 17.2487 77.7798 17.2424 77.7204 17.2402L77.6847 17.239V17.2032C77.6847 17.1435 77.689 17.0949 77.6991 17.0595L77.6993 17.059C77.7037 17.0442 77.7111 17.0292 77.7237 17.0178C77.737 17.0057 77.7535 17 77.7706 17H78.4838C78.5004 17 78.5196 17.0042 78.5345 17.019C78.5493 17.0338 78.5535 17.0531 78.5535 17.0697C78.5535 17.0834 78.5491 17.1048 78.543 17.1293C78.5382 17.1571 78.5308 17.182 78.5193 17.202L78.5089 17.2202L78.488 17.2207C78.4452 17.2218 78.4182 17.2276 78.4032 17.2349C78.3961 17.2383 78.3933 17.2414 78.3922 17.2429C78.3914 17.2441 78.3906 17.2456 78.3906 17.2488C78.3906 17.256 78.3935 17.2691 78.4033 17.2898C78.4129 17.31 78.4279 17.3346 78.4489 17.364L78.4495 17.3649L78.7996 17.8856L79.1405 17.3743C79.1616 17.3436 79.1768 17.3184 79.1865 17.2985C79.1964 17.2782 79.1989 17.2669 79.199 17.2622C79.1979 17.261 79.1941 17.2577 79.1846 17.2541C79.1652 17.2467 79.1321 17.2413 79.0823 17.2403L79.0431 17.2394L79.0461 17.2003C79.0484 17.1703 79.0531 17.142 79.0602 17.1157C79.0667 17.0898 79.0708 17.0722 79.0728 17.0624L79.0731 17.0607L79.0736 17.059C79.078 17.0442 79.0854 17.0292 79.098 17.0178C79.1114 17.0057 79.1278 17 79.1449 17H79.7605C79.777 17 79.7963 17.0042 79.8111 17.019C79.826 17.0338 79.8301 17.0531 79.8301 17.0697C79.8301 17.0834 79.8257 17.1048 79.8196 17.1293C79.8149 17.1571 79.8074 17.182 79.7959 17.202L79.7859 17.2196L79.7658 17.2207C79.6924 17.2248 79.6297 17.2419 79.5768 17.2713C79.5272 17.3 79.4745 17.3526 79.4198 17.4326L78.952 18.1121L79.4914 18.918C79.5316 18.9751 79.5656 19.0172 79.5936 19.0454C79.622 19.0698 79.6514 19.0861 79.6818 19.0952C79.7183 19.1033 79.7659 19.1095 79.825 19.1137L79.8594 19.1162V19.1507C79.8594 19.2104 79.8551 19.259 79.845 19.2944L79.8449 19.2949C79.8404 19.3097 79.833 19.3247 79.8204 19.3361C79.8071 19.3482 79.7906 19.3539 79.7735 19.3539H79.0407C79.0242 19.3539 79.0049 19.3497 78.9901 19.3349C78.9752 19.3201 78.9711 19.3008 78.9711 19.2842C78.9711 19.272 78.9738 19.2515 78.9781 19.226L78.9783 19.2246ZM79.6725 19.1312C79.6356 19.1203 79.6009 19.1008 79.5683 19.0726C79.5379 19.0422 79.5021 18.9976 79.4609 18.939L78.9072 18.1118L79.3892 17.4116C79.4457 17.3291 79.5021 17.2716 79.5586 17.239C79.6172 17.2064 79.6856 17.188 79.7637 17.1836C79.7724 17.1684 79.7789 17.1478 79.7833 17.1218C79.7898 17.0957 79.793 17.0783 79.793 17.0697C79.793 17.0479 79.7822 17.0371 79.7605 17.0371H79.1449C79.1276 17.0371 79.1156 17.0479 79.1091 17.0697C79.107 17.0805 79.1026 17.099 79.0961 17.125C79.0925 17.1381 79.0896 17.1518 79.0874 17.1662C79.0855 17.1781 79.0841 17.1904 79.0831 17.2032C79.0963 17.2035 79.1086 17.204 79.1201 17.2049C79.1975 17.2107 79.2361 17.2297 79.2361 17.2618C79.2361 17.2879 79.2144 17.3324 79.171 17.3953L78.7997 17.9522L78.4187 17.3856C78.3753 17.3248 78.3536 17.2792 78.3536 17.2488C78.3536 17.2075 78.3981 17.1858 78.4871 17.1836C78.4958 17.1684 78.5023 17.1478 78.5066 17.1218C78.5131 17.0957 78.5164 17.0783 78.5164 17.0697C78.5164 17.0479 78.5055 17.0371 78.4838 17.0371H77.7706C77.7532 17.0371 77.7413 17.0479 77.7348 17.0697C77.7261 17.1001 77.7218 17.1446 77.7218 17.2032C77.7825 17.2054 77.8303 17.2119 77.865 17.2227C77.8998 17.2336 77.9313 17.2531 77.9595 17.2813C77.9877 17.3096 78.0225 17.3541 78.0637 17.4149L78.588 18.1965L78.0767 18.9423C78.0225 19.0226 77.966 19.0802 77.9074 19.1149C77.8488 19.1475 77.7804 19.1659 77.7022 19.1703C77.6935 19.1855 77.6859 19.2061 77.6794 19.2321C77.6751 19.2582 77.6729 19.2756 77.6729 19.2842C77.6729 19.306 77.6838 19.3168 77.7055 19.3168H78.3177C78.3351 19.3168 78.347 19.306 78.3536 19.2842C78.3579 19.2734 78.3622 19.256 78.3666 19.2321C78.3702 19.2177 78.3732 19.2029 78.3754 19.1877C78.3773 19.1756 78.3786 19.1633 78.3796 19.1507C78.3664 19.1504 78.354 19.1499 78.3425 19.149C78.2652 19.1432 78.2265 19.1242 78.2265 19.0921C78.2265 19.066 78.2483 19.0215 78.2917 18.9586L78.6988 18.3593L79.1026 18.9618C79.1569 19.0356 79.184 19.0878 79.184 19.1181C79.184 19.1377 79.1721 19.1507 79.1482 19.1572C79.1243 19.1637 79.0874 19.1681 79.0375 19.1703C79.0288 19.1855 79.0212 19.2061 79.0147 19.2321C79.0103 19.2582 79.0082 19.2756 79.0082 19.2842C79.0082 19.306 79.019 19.3168 79.0407 19.3168H79.7735C79.7909 19.3168 79.8028 19.306 79.8093 19.2842C79.818 19.2538 79.8224 19.2093 79.8224 19.1507C79.7616 19.1464 79.7116 19.1399 79.6725 19.1312ZM80.6756 19.2246L80.676 19.2231C80.6829 19.1953 80.6915 19.1711 80.7025 19.1519L80.7127 19.1341L80.7331 19.1332C80.8257 19.129 80.8776 19.1081 80.9021 19.0808C80.9284 19.0494 80.9452 18.9949 80.9452 18.9097V18.3537L80.3715 17.4351C80.3306 17.3749 80.299 17.3319 80.2765 17.3053C80.2558 17.2808 80.2346 17.2655 80.2134 17.2573C80.1909 17.2487 80.1535 17.2424 80.0983 17.2402L80.0626 17.2389V17.2032C80.0626 17.1435 80.0669 17.0949 80.077 17.0595L80.0772 17.059C80.0816 17.0442 80.089 17.0292 80.1016 17.0178C80.1149 17.0057 80.1314 17 80.1485 17H80.8259C80.8425 17 80.8618 17.0042 80.8766 17.019C80.8914 17.0338 80.8956 17.0531 80.8956 17.0697C80.8956 17.0834 80.8912 17.1048 80.8851 17.1293C80.8803 17.1571 80.8729 17.182 80.8614 17.202L80.8513 17.2196L80.8311 17.2207C80.7915 17.2227 80.7676 17.2302 80.7545 17.2389C80.744 17.246 80.7393 17.2543 80.7393 17.2683C80.7393 17.2885 80.7492 17.3204 80.7762 17.3663L81.2022 18.0454L81.5682 17.3781L81.5804 17.3537L81.5817 17.3512L81.5825 17.3495C81.5836 17.3473 81.5817 17.351 81.5828 17.3488L81.5829 17.3486L81.583 17.3484L81.5883 17.3379L81.5884 17.3377L81.5934 17.3276L81.5936 17.3273L81.5946 17.3253L81.5962 17.3222L81.5965 17.3216L81.5979 17.3188L81.598 17.3185L81.6029 17.3087L81.6094 17.2956L81.6102 17.2941C81.6198 17.2748 81.6226 17.2624 81.6226 17.2554C81.6214 17.2546 81.6189 17.2533 81.6141 17.252C81.5945 17.2466 81.56 17.2424 81.5083 17.2402L81.4699 17.2386L81.4729 17.2003C81.4752 17.1702 81.4798 17.142 81.487 17.1157C81.4935 17.0898 81.4976 17.0722 81.4995 17.0624L81.4999 17.0607L81.5004 17.059C81.5048 17.0442 81.5122 17.0292 81.5248 17.0178C81.5381 17.0057 81.5546 17 81.5717 17H82.1514C82.168 17 82.1872 17.0042 82.2021 17.019C82.2169 17.0338 82.2211 17.0531 82.2211 17.0697C82.2211 17.0834 82.2167 17.1048 82.2106 17.1293C82.2058 17.1571 82.1984 17.182 82.1869 17.202L82.177 17.2193L82.1572 17.2206C82.0973 17.2246 82.0405 17.2406 81.9864 17.2685C81.9386 17.2943 81.8899 17.3463 81.8417 17.43C81.8417 17.43 81.8417 17.43 81.8417 17.43L81.3353 18.3235V18.9097C81.3353 18.957 81.3363 18.9954 81.3384 19.0252C81.3406 19.0557 81.3436 19.0746 81.3466 19.0844C81.3491 19.0923 81.3525 19.0967 81.3562 19.0996C81.36 19.1027 81.3664 19.1058 81.3774 19.1074C81.3982 19.1094 81.4253 19.1115 81.4589 19.1136H81.5828V19.1507C81.5828 19.2104 81.5784 19.259 81.5683 19.2944L81.5682 19.2949C81.5637 19.3097 81.5563 19.3247 81.5438 19.3361C81.5304 19.3482 81.514 19.3539 81.4968 19.3539H80.738C80.7214 19.3539 80.7022 19.3497 80.6874 19.3349C80.6725 19.3201 80.6683 19.3008 80.6683 19.2842C80.6683 19.272 80.6711 19.2515 80.6754 19.226L80.6756 19.2246ZM81.4577 19.1507C81.423 19.1485 81.3948 19.1464 81.3731 19.1442C81.3405 19.1399 81.3199 19.1236 81.3112 19.0954C81.3025 19.0671 81.2982 19.0052 81.2982 18.9097V18.3137L81.8095 17.4116C81.8594 17.3248 81.9126 17.2661 81.9691 17.2358C82.0277 17.2054 82.0896 17.188 82.1547 17.1836C82.1634 17.1684 82.1699 17.1478 82.1742 17.1218C82.1807 17.0957 82.184 17.0783 82.184 17.0697C82.184 17.0479 82.1731 17.0371 82.1514 17.0371H81.5717C81.5544 17.0371 81.5424 17.0479 81.5359 17.0697C81.5337 17.0805 81.5294 17.099 81.5229 17.125C81.5193 17.1381 81.5164 17.1518 81.5141 17.1662C81.5123 17.1781 81.5108 17.1904 81.5099 17.2032C81.5231 17.2037 81.5355 17.2044 81.5469 17.2053C81.5804 17.2077 81.606 17.2114 81.6238 17.2162C81.6477 17.2227 81.6597 17.2357 81.6597 17.2553C81.6597 17.2705 81.6542 17.2889 81.6434 17.3107L81.601 17.3953L81.2135 18.102C81.207 18.1129 81.2005 18.1129 81.1939 18.102L81.1818 18.0827L80.7445 17.3856C80.7163 17.3378 80.7022 17.2987 80.7022 17.2683C80.7022 17.2162 80.7445 17.188 80.8292 17.1836C80.8379 17.1684 80.8444 17.1478 80.8487 17.1218C80.8552 17.0957 80.8585 17.0783 80.8585 17.0697C80.8585 17.0479 80.8476 17.0371 80.8259 17.0371H80.1485C80.1312 17.0371 80.1192 17.0479 80.1127 17.0697C80.104 17.1001 80.0997 17.1446 80.0997 17.2032C80.1561 17.2054 80.1985 17.2119 80.2267 17.2227C80.2549 17.2336 80.281 17.2531 80.3049 17.2813C80.3287 17.3096 80.3613 17.3541 80.4026 17.4149L80.9823 18.343V18.9097C80.9823 18.9987 80.9649 19.0639 80.9302 19.1051C80.8954 19.1442 80.8303 19.1659 80.7347 19.1703C80.7261 19.1855 80.7185 19.2061 80.712 19.2321C80.7076 19.2582 80.7054 19.2756 80.7054 19.2842C80.7054 19.306 80.7163 19.3168 80.738 19.3168H81.4968C81.5142 19.3168 81.5261 19.306 81.5327 19.2842C81.5394 19.2606 81.5435 19.2285 81.545 19.1878C81.5455 19.1761 81.5457 19.1638 81.5457 19.1507H81.4577ZM82.5553 19.1596L83.746 17.2576L82.9571 17.2696C82.9326 17.2696 82.9138 17.2714 82.8999 17.2744C82.8873 17.2772 82.881 17.2805 82.8783 17.2825C82.8758 17.2854 82.8714 17.2921 82.8663 17.3053C82.8608 17.3195 82.8554 17.3387 82.8502 17.3635C82.8502 17.3636 82.8502 17.3637 82.8501 17.3638L82.8243 17.4997C82.8242 17.4997 82.8242 17.4998 82.8242 17.4999C82.8207 17.5191 82.8115 17.5372 82.7942 17.5498C82.7776 17.562 82.7579 17.5659 82.7389 17.5659C82.7247 17.5659 82.7035 17.5633 82.6775 17.5589C82.6502 17.5544 82.6263 17.5482 82.6083 17.5392L82.5863 17.5282L82.614 17.0989C82.6163 17.0741 82.6223 17.0471 82.6396 17.0286C82.6591 17.0056 82.6894 17 82.7161 17H84.1458C84.1733 17 84.2006 17.0069 84.2209 17.0271C84.2412 17.0474 84.2481 17.0748 84.2481 17.1022V17.1682L83.0539 19.0896L83.8938 19.0746C83.8939 19.0746 83.894 19.0746 83.8941 19.0746C83.953 19.0725 83.9897 19.0593 84.011 19.0411L84.0119 19.0403C84.0385 19.0191 84.0612 18.9879 84.0789 18.9447C84.0789 18.9446 84.0788 18.9447 84.0789 18.9447L84.1446 18.7804C84.1519 18.7643 84.1622 18.7496 84.1768 18.739C84.1918 18.728 84.2091 18.7228 84.2273 18.7228C84.2432 18.7228 84.2641 18.7271 84.2876 18.7335C84.3123 18.7381 84.3341 18.7442 84.3513 18.7528L84.3761 18.7652L84.2896 19.2462C84.2831 19.2777 84.2697 19.3055 84.2465 19.3254C84.223 19.3455 84.1937 19.3539 84.1621 19.3539H82.6705C82.6384 19.3539 82.6075 19.3454 82.5851 19.3221C82.5631 19.2991 82.5553 19.2679 82.5553 19.2354V19.1596ZM84.2794 18.7697C84.2555 18.7632 84.2381 18.7599 84.2273 18.7599C84.2055 18.7599 84.1893 18.7718 84.1784 18.7957L84.1133 18.9586C84.0937 19.0063 84.0677 19.0432 84.0351 19.0693C84.0047 19.0954 83.958 19.1095 83.8951 19.1116L82.9864 19.1279L84.211 17.1576V17.1022C84.211 17.0588 84.1893 17.0371 84.1458 17.0371H82.7161C82.6922 17.0371 82.676 17.0425 82.6673 17.0534C82.6586 17.0621 82.6532 17.0783 82.651 17.1022L82.6249 17.5061C82.638 17.5126 82.6575 17.518 82.6836 17.5223C82.7096 17.5267 82.7281 17.5289 82.7389 17.5289C82.7671 17.5289 82.7834 17.5169 82.7878 17.493L82.8138 17.3562C82.8247 17.3041 82.8377 17.2705 82.8529 17.2553C82.8703 17.2401 82.905 17.2325 82.9571 17.2325L83.8136 17.2195L82.5924 19.1703V19.2354C82.5924 19.2897 82.6184 19.3168 82.6705 19.3168H84.1621C84.2121 19.3168 84.2424 19.2908 84.2533 19.2386L84.3347 18.786C84.3217 18.7794 84.3032 18.774 84.2794 18.7697ZM76.9277 19.3539C76.8516 19.3539 76.7865 19.329 76.7354 19.2779C76.6843 19.2268 76.6594 19.1617 76.6594 19.0856C76.6594 19.0131 76.6848 18.9503 76.7354 18.8998C76.7865 18.8487 76.8516 18.8238 76.9277 18.8238C77.0019 18.8238 77.065 18.8489 77.1139 18.9001C77.1642 18.9506 77.1895 19.0132 77.1895 19.0856C77.1895 19.1615 77.1647 19.2265 77.1139 19.2776C77.065 19.3288 77.0019 19.3539 76.9277 19.3539ZM77.0873 18.926C77.0461 18.8826 76.9929 18.8609 76.9277 18.8609C76.8604 18.8609 76.8051 18.8826 76.7616 18.926C76.7182 18.9694 76.6965 19.0226 76.6965 19.0856C76.6965 19.1529 76.7182 19.2083 76.7616 19.2517C76.8051 19.2951 76.8604 19.3168 76.9277 19.3168C76.9929 19.3168 77.0461 19.2951 77.0873 19.2517C77.1307 19.2083 77.1525 19.1529 77.1525 19.0856C77.1525 19.0226 77.1307 18.9694 77.0873 18.926Z" fill="white"/>
</svg>
