<svg width="86" height="21" viewBox="0 0 86 21" fill="none" xmlns="http://www.w3.org/2000/svg">
<path fill-rule="evenodd" clip-rule="evenodd" d="M0.0858822 20.1691H4.50882C4.35137 20.0117 4.03647 19.4821 4.03647 18.6232V13.8997L10.6494 20.1691H15.8023L9.10352 13.7709C11.2076 13.7423 15.4159 11.538 15.4159 7.45855C15.4159 2.00503 10.177 0.716797 9.10352 0.716797H0C0.186078 1.01738 0.558235 1.92774 0.558235 3.16444V18.6232C0.558235 19.2244 0.292 19.8943 0.0858822 20.1691ZM4.03653 12.694H8.97476C9.80495 12.2073 11.8948 10.4009 11.8948 7.06869C11.8948 3.73646 9.93377 2.15909 8.97476 1.78693H4.03653V12.694Z" fill="#34F3FF"/>
<path d="M31.2136 20.2243H16.9932C17.3724 19.6372 17.4959 18.8287 17.5103 18.4978V2.57031C17.5103 1.74156 17.1655 0.930078 16.9932 0.62793H31.2136V3.17461C30.9378 2.93289 30.1363 2.57031 29.6192 2.57031H20.9576V9.56288H26.8182C27.5421 9.56288 28.2402 9.21757 28.4988 9.04491V11.4621C27.9472 10.9441 27.1485 10.8434 26.8182 10.8578H20.9576V18.4978H29.1882C30.4638 18.4978 31.0699 18.0949 31.2136 17.8935V20.2243Z" fill="#34F3FF"/>
<path fill-rule="evenodd" clip-rule="evenodd" d="M31.9459 20.255H34.2647C34.2504 19.9401 34.3076 19.2244 34.4364 18.6662C34.5064 18.3629 34.6701 17.9326 34.8267 17.5207C34.9434 17.2137 35.0563 16.917 35.1235 16.6909H43.6258C43.9121 17.1776 44.4847 18.9668 44.4847 20.2121H49.0794C48.8933 19.9687 48.4696 19.379 48.2635 18.9668C48.0574 18.5545 43.6258 6.62836 41.4358 0.716797H37.7859L38.7735 3.25032L33.0194 18.3656C32.98 18.4444 32.9336 18.5407 32.8818 18.6482C32.6325 19.166 32.2588 19.9421 31.9459 20.255ZM43.2809 15.355L39.4162 5.17796L35.5515 15.355H43.2809Z" fill="#34F3FF"/>
<path d="M52.5269 20.2243H50.1157C50.7185 18.8921 50.6324 18.3334 50.6324 17.431V2.81963C50.6324 1.71948 50.2879 0.900102 50.1157 0.62793H52.0102L59.7608 11.1567L67.4252 0.62793H68.9323C68.6222 1.04049 68.4873 1.91717 68.4586 2.30394V18.2475C68.4586 18.9007 68.8318 19.8376 69.0184 20.2243H64.4542C64.7986 19.8805 65.0283 18.7632 65.1 18.2475V6.90221L60.7942 12.6178L61.5692 13.6922L60.4928 15.1748L59.4163 16.6574L52.0102 6.68734V17.431C52.0102 18.7374 52.3547 19.8376 52.5269 20.2243Z" fill="#34F3FF"/>
<path fill-rule="evenodd" clip-rule="evenodd" d="M70.288 20.1662H74.7968C74.6251 19.8513 74.2815 19.0497 74.2815 18.3627V13.6391H80.2074C81.968 13.5246 85.4892 12.016 85.4892 6.89739C85.4892 1.7788 81.968 0.613668 80.2074 0.670923H70.2451C70.4454 0.957209 70.8462 1.75307 70.8462 2.64625V18.3627C70.8462 18.9639 70.6315 19.7196 70.288 20.1662ZM74.2375 12.265H79.4334C80.3637 11.8929 82.2245 10.2468 82.2245 6.98325C82.2245 3.34185 79.8628 1.95914 78.961 1.95914H74.2375V12.265Z" fill="#34F3FF"/>
<path d="M76.9278 19.9438C76.8605 19.9438 76.8051 19.9221 76.7617 19.8786C76.7182 19.8352 76.6965 19.7799 76.6965 19.7126C76.6965 19.6496 76.7182 19.5964 76.7617 19.553C76.8051 19.5096 76.8605 19.4878 76.9278 19.4878C76.9929 19.4878 77.0461 19.5096 77.0873 19.553C77.1308 19.5964 77.1525 19.6496 77.1525 19.7126C77.1525 19.7799 77.1308 19.8352 77.0873 19.8786C77.0461 19.9221 76.9929 19.9438 76.9278 19.9438Z" fill="#34F3FF"/>
<path d="M79.0408 19.9438C79.019 19.9438 79.0082 19.9329 79.0082 19.9112C79.0082 19.9025 79.0104 19.8852 79.0147 19.8591C79.0212 19.8331 79.0288 19.8124 79.0375 19.7972C79.0874 19.7951 79.1243 19.7907 79.1482 19.7842C79.1721 19.7777 79.184 19.7647 79.184 19.7451C79.184 19.7147 79.1569 19.6626 79.1026 19.5888L78.6988 18.9863L78.2917 19.5855C78.2483 19.6485 78.2266 19.693 78.2266 19.7191C78.2266 19.756 78.2776 19.7755 78.3796 19.7777C78.3775 19.8059 78.3731 19.8331 78.3666 19.8591C78.3623 19.883 78.3579 19.9004 78.3536 19.9112C78.3471 19.9329 78.3351 19.9438 78.3178 19.9438H77.7055C77.6838 19.9438 77.6729 19.9329 77.6729 19.9112C77.6729 19.9025 77.6751 19.8852 77.6794 19.8591C77.6859 19.8331 77.6935 19.8124 77.7022 19.7972C77.7804 19.7929 77.8488 19.7744 77.9074 19.7419C77.966 19.7071 78.0225 19.6496 78.0768 19.5693L78.5881 18.8235L78.0637 18.0418C78.0225 17.9811 77.9877 17.9365 77.9595 17.9083C77.9313 17.8801 77.8998 17.8606 77.8651 17.8497C77.8303 17.8388 77.7826 17.8323 77.7218 17.8302C77.7218 17.7715 77.7261 17.727 77.7348 17.6966C77.7413 17.6749 77.7533 17.6641 77.7706 17.6641H78.4838C78.5056 17.6641 78.5164 17.6749 78.5164 17.6966C78.5164 17.7053 78.5132 17.7227 78.5066 17.7487C78.5023 17.7748 78.4958 17.7954 78.4871 17.8106C78.3981 17.8128 78.3536 17.8345 78.3536 17.8758C78.3536 17.9061 78.3753 17.9517 78.4187 18.0125L78.7998 18.5792L79.171 18.0223C79.2144 17.9593 79.2362 17.9148 79.2362 17.8888C79.2362 17.8519 79.1851 17.8323 79.0831 17.8302C79.0853 17.8019 79.0896 17.7759 79.0961 17.752C79.1026 17.7259 79.107 17.7075 79.1091 17.6966C79.1157 17.6749 79.1276 17.6641 79.145 17.6641H79.7605C79.7822 17.6641 79.7931 17.6749 79.7931 17.6966C79.7931 17.7053 79.7898 17.7227 79.7833 17.7487C79.7789 17.7748 79.7724 17.7954 79.7637 17.8106C79.6856 17.815 79.6172 17.8334 79.5586 17.866C79.5021 17.8985 79.4457 17.9561 79.3892 18.0386L78.9072 18.7388L79.4609 19.566C79.5021 19.6246 79.5379 19.6691 79.5683 19.6995C79.6009 19.7278 79.6357 19.7473 79.6726 19.7581C79.7116 19.7668 79.7616 19.7733 79.8224 19.7777C79.8224 19.8363 79.818 19.8808 79.8093 19.9112C79.8028 19.9329 79.7909 19.9438 79.7735 19.9438H79.0408Z" fill="#34F3FF"/>
<path d="M80.738 19.9438C80.7163 19.9438 80.7055 19.9329 80.7055 19.9112C80.7055 19.9025 80.7076 19.8852 80.712 19.8591C80.7185 19.8331 80.7261 19.8124 80.7348 19.7972C80.8303 19.7929 80.8954 19.7712 80.9302 19.7321C80.9649 19.6908 80.9823 19.6257 80.9823 19.5367V18.97L80.4026 18.0418C80.3613 17.9811 80.3288 17.9365 80.3049 17.9083C80.281 17.8801 80.2549 17.8606 80.2267 17.8497C80.1985 17.8388 80.1562 17.8323 80.0997 17.8302C80.0997 17.7715 80.104 17.727 80.1127 17.6966C80.1192 17.6749 80.1312 17.6641 80.1486 17.6641H80.826C80.8477 17.6641 80.8585 17.6749 80.8585 17.6966C80.8585 17.7053 80.8553 17.7227 80.8488 17.7487C80.8444 17.7748 80.8379 17.7954 80.8292 17.8106C80.7445 17.815 80.7022 17.8432 80.7022 17.8953C80.7022 17.9257 80.7163 17.9648 80.7445 18.0125L81.194 18.729C81.2005 18.7399 81.207 18.7399 81.2135 18.729L81.6011 18.0223C81.6184 17.9876 81.6325 17.9593 81.6434 17.9376C81.6543 17.9159 81.6597 17.8975 81.6597 17.8823C81.6597 17.8627 81.6477 17.8497 81.6239 17.8432C81.6 17.8367 81.562 17.8323 81.5099 17.8302C81.512 17.8019 81.5164 17.7759 81.5229 17.752C81.5294 17.7259 81.5338 17.7075 81.5359 17.6966C81.5424 17.6749 81.5544 17.6641 81.5718 17.6641H82.1515C82.1732 17.6641 82.184 17.6749 82.184 17.6966C82.184 17.7053 82.1808 17.7227 82.1742 17.7487C82.1699 17.7748 82.1634 17.7954 82.1547 17.8106C82.0896 17.815 82.0277 17.8323 81.9691 17.8627C81.9126 17.8931 81.8594 17.9517 81.8095 18.0386L81.2982 18.9407V19.5367C81.2982 19.6322 81.3025 19.6941 81.3112 19.7223C81.3199 19.7506 81.3405 19.7668 81.3731 19.7712C81.3948 19.7733 81.423 19.7755 81.4578 19.7777C81.4947 19.7777 81.524 19.7777 81.5457 19.7777C81.5457 19.8363 81.5414 19.8808 81.5327 19.9112C81.5262 19.9329 81.5142 19.9438 81.4968 19.9438H80.738Z" fill="#34F3FF"/>
<path d="M82.6705 19.9438C82.6184 19.9438 82.5924 19.9166 82.5924 19.8624V19.7972L83.8137 17.8464L82.9571 17.8595C82.905 17.8595 82.8703 17.8671 82.8529 17.8823C82.8377 17.8975 82.8247 17.9311 82.8138 17.9832L82.7878 18.12C82.7834 18.1439 82.7672 18.1558 82.7389 18.1558C82.7281 18.1558 82.7096 18.1537 82.6836 18.1493C82.6575 18.145 82.638 18.1395 82.625 18.133L82.651 17.7292C82.6532 17.7053 82.6586 17.689 82.6673 17.6803C82.676 17.6695 82.6923 17.6641 82.7161 17.6641H84.1459C84.1893 17.6641 84.211 17.6858 84.211 17.7292V17.7846L82.9865 19.7549L83.8951 19.7386C83.958 19.7364 84.0047 19.7223 84.0351 19.6963C84.0677 19.6702 84.0937 19.6333 84.1133 19.5855L84.1784 19.4227C84.1893 19.3988 84.2056 19.3869 84.2273 19.3869C84.2381 19.3869 84.2555 19.3901 84.2794 19.3967C84.3033 19.401 84.3217 19.4064 84.3347 19.4129L84.2533 19.8656C84.2425 19.9177 84.2121 19.9438 84.1621 19.9438H82.6705Z" fill="#34F3FF"/>
<path fill-rule="evenodd" clip-rule="evenodd" d="M78.9783 19.8525L78.9787 19.8511C78.9856 19.8233 78.9943 19.7991 79.0053 19.7798L79.0154 19.762L79.0359 19.7611C79.0852 19.759 79.1187 19.7548 79.1384 19.7494C79.1433 19.7481 79.1458 19.7467 79.1469 19.746C79.1469 19.7401 79.1437 19.7261 79.1308 19.7013C79.1184 19.6776 79.0993 19.6478 79.0727 19.6117L79.0718 19.6104L78.6986 19.0536L78.3222 19.6076C78.3011 19.6382 78.2859 19.6634 78.2762 19.6834C78.2663 19.7037 78.2638 19.715 78.2636 19.7196C78.2648 19.7209 78.2686 19.7241 78.2781 19.7277C78.2975 19.7352 78.3306 19.7405 78.3804 19.7416L78.4196 19.7424L78.4166 19.7815C78.4143 19.8113 78.4097 19.8401 78.4029 19.8679C78.3987 19.8908 78.394 19.9103 78.3886 19.9244C78.3841 19.9387 78.3768 19.953 78.3647 19.964C78.3513 19.9762 78.3349 19.9818 78.3177 19.9818H77.7055C77.6889 19.9818 77.6697 19.9777 77.6548 19.9628C77.64 19.948 77.6358 19.9287 77.6358 19.9122C77.6358 19.8999 77.6386 19.8795 77.6428 19.854L77.6431 19.8525L77.6434 19.8511C77.6504 19.8233 77.659 19.7991 77.67 19.7798L77.68 19.7623L77.7002 19.7612C77.7734 19.7571 77.836 19.7399 77.8889 19.7107C77.9411 19.6796 77.9937 19.6268 78.046 19.5494L78.0461 19.5492L78.5432 18.8242L78.033 18.0636C78.033 18.0636 78.033 18.0637 78.033 18.0636C77.9922 18.0035 77.959 17.9612 77.9333 17.9355C77.9089 17.9111 77.8825 17.895 77.854 17.8861C77.8238 17.8766 77.7798 17.8703 77.7204 17.8682L77.6847 17.8669V17.8311C77.6847 17.7714 77.689 17.7228 77.6991 17.6874L77.6993 17.6869C77.7037 17.6721 77.7111 17.6572 77.7237 17.6457C77.737 17.6336 77.7535 17.6279 77.7706 17.6279H78.4838C78.5004 17.6279 78.5196 17.6321 78.5345 17.6469C78.5493 17.6618 78.5535 17.681 78.5535 17.6976C78.5535 17.7114 78.5491 17.7327 78.543 17.7573C78.5382 17.7851 78.5308 17.8099 78.5193 17.83L78.5089 17.8481L78.488 17.8486C78.4452 17.8497 78.4182 17.8555 78.4032 17.8628C78.3961 17.8663 78.3933 17.8693 78.3922 17.8708C78.3914 17.872 78.3906 17.8735 78.3906 17.8767C78.3906 17.8839 78.3935 17.8971 78.4033 17.9178C78.4129 17.9379 78.4279 17.9626 78.4489 17.9919L78.4495 17.9928L78.7996 18.5135L79.1405 18.0022C79.1616 17.9715 79.1768 17.9463 79.1865 17.9264C79.1964 17.9061 79.1989 17.8948 79.199 17.8902C79.1979 17.8889 79.1941 17.8857 79.1846 17.882C79.1652 17.8746 79.1321 17.8693 79.0823 17.8682L79.0431 17.8674L79.0461 17.8283C79.0484 17.7982 79.0531 17.7699 79.0602 17.7436C79.0667 17.7177 79.0708 17.7002 79.0728 17.6903L79.0731 17.6886L79.0736 17.6869C79.078 17.6721 79.0854 17.6572 79.098 17.6457C79.1114 17.6336 79.1278 17.6279 79.1449 17.6279H79.7605C79.777 17.6279 79.7963 17.6321 79.8111 17.6469C79.826 17.6618 79.8301 17.681 79.8301 17.6976C79.8301 17.7114 79.8257 17.7327 79.8196 17.7573C79.8149 17.7851 79.8074 17.8099 79.7959 17.83L79.7859 17.8475L79.7658 17.8486C79.6924 17.8527 79.6297 17.8699 79.5768 17.8992C79.5272 17.9279 79.4745 17.9805 79.4198 18.0605L78.952 18.74L79.4914 19.546C79.5316 19.603 79.5656 19.6451 79.5936 19.6733C79.622 19.6977 79.6514 19.714 79.6818 19.7232C79.7183 19.7312 79.7659 19.7374 79.825 19.7417L79.8594 19.7441V19.7786C79.8594 19.8383 79.8551 19.8869 79.845 19.9224L79.8449 19.9228C79.8404 19.9377 79.833 19.9526 79.8204 19.964C79.8071 19.9762 79.7906 19.9818 79.7735 19.9818H79.0407C79.0242 19.9818 79.0049 19.9777 78.9901 19.9628C78.9752 19.948 78.9711 19.9287 78.9711 19.9122C78.9711 19.8999 78.9738 19.8795 78.9781 19.854L78.9783 19.8525ZM79.6725 19.7591C79.6356 19.7482 79.6009 19.7287 79.5683 19.7005C79.5379 19.6701 79.5021 19.6256 79.4609 19.567L78.9072 18.7397L79.3892 18.0395C79.4457 17.957 79.5021 17.8995 79.5586 17.8669C79.6172 17.8344 79.6856 17.8159 79.7637 17.8116C79.7724 17.7964 79.7789 17.7757 79.7833 17.7497C79.7898 17.7236 79.793 17.7063 79.793 17.6976C79.793 17.6759 79.7822 17.665 79.7605 17.665H79.1449C79.1276 17.665 79.1156 17.6759 79.1091 17.6976C79.107 17.7084 79.1026 17.7269 79.0961 17.753C79.0925 17.766 79.0896 17.7797 79.0874 17.7941C79.0855 17.806 79.0841 17.8183 79.0831 17.8311C79.0963 17.8314 79.1086 17.832 79.1201 17.8328C79.1975 17.8386 79.2361 17.8576 79.2361 17.8897C79.2361 17.9158 79.2144 17.9603 79.171 18.0233L78.7997 18.5802L78.4187 18.0135C78.3753 17.9527 78.3536 17.9071 78.3536 17.8767C78.3536 17.8355 78.3981 17.8137 78.4871 17.8116C78.4958 17.7964 78.5023 17.7757 78.5066 17.7497C78.5131 17.7236 78.5164 17.7063 78.5164 17.6976C78.5164 17.6759 78.5055 17.665 78.4838 17.665H77.7706C77.7532 17.665 77.7413 17.6759 77.7348 17.6976C77.7261 17.728 77.7218 17.7725 77.7218 17.8311C77.7825 17.8333 77.8303 17.8398 77.865 17.8507C77.8998 17.8615 77.9313 17.881 77.9595 17.9093C77.9877 17.9375 78.0225 17.982 78.0637 18.0428L78.588 18.8244L78.0767 19.5702C78.0225 19.6505 77.966 19.7081 77.9074 19.7428C77.8488 19.7754 77.7804 19.7938 77.7022 19.7982C77.6935 19.8134 77.6859 19.834 77.6794 19.8601C77.6751 19.8861 77.6729 19.9035 77.6729 19.9122C77.6729 19.9339 77.6838 19.9447 77.7055 19.9447H78.3177C78.3351 19.9447 78.347 19.9339 78.3536 19.9122C78.3579 19.9013 78.3622 19.8839 78.3666 19.8601C78.3702 19.8456 78.3732 19.8308 78.3754 19.8156C78.3773 19.8035 78.3786 19.7912 78.3796 19.7786C78.3664 19.7784 78.354 19.7778 78.3425 19.7769C78.2652 19.7711 78.2265 19.7522 78.2265 19.72C78.2265 19.694 78.2483 19.6495 78.2917 19.5865L78.6988 18.9873L79.1026 19.5898C79.1569 19.6636 79.184 19.7157 79.184 19.7461C79.184 19.7656 79.1721 19.7786 79.1482 19.7852C79.1243 19.7917 79.0874 19.796 79.0375 19.7982C79.0288 19.8134 79.0212 19.834 79.0147 19.8601C79.0103 19.8861 79.0082 19.9035 79.0082 19.9122C79.0082 19.9339 79.019 19.9447 79.0407 19.9447H79.7735C79.7909 19.9447 79.8028 19.9339 79.8093 19.9122C79.818 19.8818 79.8224 19.8373 79.8224 19.7786C79.7616 19.7743 79.7116 19.7678 79.6725 19.7591ZM80.6756 19.8525L80.676 19.8511C80.6829 19.8233 80.6915 19.7991 80.7025 19.7798L80.7127 19.7621L80.7331 19.7611C80.8257 19.7569 80.8776 19.736 80.9021 19.7088C80.9284 19.6773 80.9452 19.6228 80.9452 19.5376V18.9816L80.3715 18.063C80.3306 18.0028 80.299 17.9598 80.2765 17.9332C80.2558 17.9087 80.2346 17.8934 80.2134 17.8853C80.1909 17.8766 80.1535 17.8703 80.0983 17.8682L80.0626 17.8668V17.8311C80.0626 17.7714 80.0669 17.7228 80.077 17.6874L80.0772 17.6869C80.0816 17.6721 80.089 17.6572 80.1016 17.6457C80.1149 17.6336 80.1314 17.6279 80.1485 17.6279H80.8259C80.8425 17.6279 80.8618 17.6321 80.8766 17.6469C80.8914 17.6618 80.8956 17.681 80.8956 17.6976C80.8956 17.7114 80.8912 17.7327 80.8851 17.7573C80.8803 17.7851 80.8729 17.8099 80.8614 17.83L80.8513 17.8476L80.8311 17.8486C80.7915 17.8506 80.7676 17.8582 80.7545 17.8669C80.744 17.8739 80.7393 17.8822 80.7393 17.8962C80.7393 17.9165 80.7492 17.9484 80.7762 17.9942L81.2022 18.6734L81.5682 18.006L81.5804 17.9817L81.5817 17.9791L81.5825 17.9775C81.5836 17.9753 81.5817 17.9789 81.5828 17.9767L81.5829 17.9766L81.583 17.9764L81.5883 17.9658L81.5884 17.9657L81.5934 17.9555L81.5936 17.9552L81.5946 17.9533L81.5962 17.9501L81.5965 17.9495L81.5979 17.9467L81.598 17.9464L81.6029 17.9366L81.6094 17.9235L81.6102 17.922C81.6198 17.9028 81.6226 17.8903 81.6226 17.8833C81.6214 17.8826 81.6189 17.8812 81.6141 17.8799C81.5945 17.8746 81.56 17.8703 81.5083 17.8682L81.4699 17.8666L81.4729 17.8283C81.4752 17.7982 81.4798 17.7699 81.487 17.7436C81.4935 17.7177 81.4976 17.7002 81.4995 17.6903L81.4999 17.6886L81.5004 17.6869C81.5048 17.6721 81.5122 17.6572 81.5248 17.6457C81.5381 17.6336 81.5546 17.6279 81.5717 17.6279H82.1514C82.168 17.6279 82.1872 17.6321 82.2021 17.6469C82.2169 17.6618 82.2211 17.681 82.2211 17.6976C82.2211 17.7114 82.2167 17.7327 82.2106 17.7573C82.2058 17.7851 82.1984 17.8099 82.1869 17.83L82.177 17.8473L82.1572 17.8486C82.0973 17.8526 82.0405 17.8685 81.9864 17.8965C81.9386 17.9223 81.8899 17.9742 81.8417 18.0579C81.8417 18.058 81.8417 18.0579 81.8417 18.0579L81.3353 18.9514V19.5376C81.3353 19.585 81.3363 19.6234 81.3384 19.6531C81.3406 19.6836 81.3436 19.7026 81.3466 19.7124C81.3491 19.7202 81.3525 19.7246 81.3562 19.7276C81.36 19.7306 81.3664 19.7338 81.3774 19.7353C81.3982 19.7374 81.4253 19.7394 81.4589 19.7416H81.5828V19.7786C81.5828 19.8383 81.5784 19.8869 81.5683 19.9224L81.5682 19.9228C81.5637 19.9377 81.5563 19.9526 81.5438 19.964C81.5304 19.9762 81.514 19.9818 81.4968 19.9818H80.738C80.7214 19.9818 80.7022 19.9777 80.6874 19.9628C80.6725 19.948 80.6683 19.9287 80.6683 19.9122C80.6683 19.8999 80.6711 19.8795 80.6754 19.854L80.6756 19.8525ZM81.4577 19.7786C81.423 19.7765 81.3948 19.7743 81.3731 19.7721C81.3405 19.7678 81.3199 19.7515 81.3112 19.7233C81.3025 19.6951 81.2982 19.6332 81.2982 19.5376V18.9417L81.8095 18.0395C81.8594 17.9527 81.9126 17.8941 81.9691 17.8637C82.0277 17.8333 82.0896 17.8159 82.1547 17.8116C82.1634 17.7964 82.1699 17.7757 82.1742 17.7497C82.1807 17.7236 82.184 17.7063 82.184 17.6976C82.184 17.6759 82.1731 17.665 82.1514 17.665H81.5717C81.5544 17.665 81.5424 17.6759 81.5359 17.6976C81.5337 17.7084 81.5294 17.7269 81.5229 17.753C81.5193 17.766 81.5164 17.7798 81.5141 17.7942C81.5123 17.806 81.5108 17.8184 81.5099 17.8311C81.5231 17.8317 81.5355 17.8324 81.5469 17.8332C81.5804 17.8356 81.606 17.8393 81.6238 17.8441C81.6477 17.8507 81.6597 17.8637 81.6597 17.8832C81.6597 17.8984 81.6542 17.9169 81.6434 17.9386L81.601 18.0233L81.2135 18.73C81.207 18.7408 81.2005 18.7408 81.1939 18.73L81.1818 18.7107L80.7445 18.0135C80.7163 17.9657 80.7022 17.9266 80.7022 17.8962C80.7022 17.8441 80.7445 17.8159 80.8292 17.8116C80.8379 17.7964 80.8444 17.7757 80.8487 17.7497C80.8552 17.7236 80.8585 17.7063 80.8585 17.6976C80.8585 17.6759 80.8476 17.665 80.8259 17.665H80.1485C80.1312 17.665 80.1192 17.6759 80.1127 17.6976C80.104 17.728 80.0997 17.7725 80.0997 17.8311C80.1561 17.8333 80.1985 17.8398 80.2267 17.8507C80.2549 17.8615 80.281 17.881 80.3049 17.9093C80.3287 17.9375 80.3613 17.982 80.4026 18.0428L80.9823 18.971V19.5376C80.9823 19.6267 80.9649 19.6918 80.9302 19.7331C80.8954 19.7721 80.8303 19.7938 80.7347 19.7982C80.7261 19.8134 80.7185 19.834 80.712 19.8601C80.7076 19.8861 80.7054 19.9035 80.7054 19.9122C80.7054 19.9339 80.7163 19.9447 80.738 19.9447H81.4968C81.5142 19.9447 81.5261 19.9339 81.5327 19.9122C81.5394 19.8885 81.5435 19.8564 81.545 19.8157C81.5455 19.8041 81.5457 19.7917 81.5457 19.7786H81.4577ZM82.5553 19.7875L83.746 17.8855L82.9571 17.8975C82.9326 17.8975 82.9138 17.8993 82.8999 17.9024C82.8873 17.9051 82.881 17.9084 82.8783 17.9104C82.8758 17.9133 82.8714 17.9201 82.8663 17.9332C82.8608 17.9475 82.8554 17.9667 82.8502 17.9914C82.8502 17.9915 82.8502 17.9916 82.8501 17.9917L82.8243 18.1276C82.8242 18.1277 82.8242 18.1277 82.8242 18.1278C82.8207 18.147 82.8115 18.1651 82.7942 18.1777C82.7776 18.1899 82.7579 18.1939 82.7389 18.1939C82.7247 18.1939 82.7035 18.1912 82.6775 18.1869C82.6502 18.1823 82.6263 18.1762 82.6083 18.1672L82.5863 18.1562L82.614 17.7268C82.6163 17.702 82.6223 17.675 82.6396 17.6566C82.6591 17.6335 82.6894 17.6279 82.7161 17.6279H84.1458C84.1733 17.6279 84.2006 17.6348 84.2209 17.6551C84.2412 17.6753 84.2481 17.7027 84.2481 17.7302V17.7961L83.0539 19.7175L83.8938 19.7025C83.8939 19.7025 83.894 19.7025 83.8941 19.7025C83.953 19.7004 83.9897 19.6873 84.011 19.6691L84.0119 19.6682C84.0385 19.647 84.0612 19.6158 84.0789 19.5726C84.0789 19.5726 84.0788 19.5727 84.0789 19.5726L84.1446 19.4083C84.1519 19.3923 84.1622 19.3776 84.1768 19.3669C84.1918 19.3559 84.2091 19.3507 84.2273 19.3507C84.2432 19.3507 84.2641 19.3551 84.2876 19.3614C84.3123 19.366 84.3341 19.3721 84.3513 19.3807L84.3761 19.3931L84.2896 19.8741C84.2831 19.9056 84.2697 19.9335 84.2465 19.9534C84.223 19.9735 84.1937 19.9818 84.1621 19.9818H82.6705C82.6384 19.9818 82.6075 19.9734 82.5851 19.9501C82.5631 19.927 82.5553 19.8958 82.5553 19.8633V19.7875ZM84.2794 19.3976C84.2555 19.3911 84.2381 19.3878 84.2273 19.3878C84.2055 19.3878 84.1893 19.3998 84.1784 19.4237L84.1133 19.5865C84.0937 19.6343 84.0677 19.6712 84.0351 19.6972C84.0047 19.7233 83.958 19.7374 83.8951 19.7396L82.9864 19.7558L84.211 17.7855V17.7302C84.211 17.6867 84.1893 17.665 84.1458 17.665H82.7161C82.6922 17.665 82.676 17.6704 82.6673 17.6813C82.6586 17.69 82.6532 17.7063 82.651 17.7302L82.6249 18.134C82.638 18.1405 82.6575 18.1459 82.6836 18.1503C82.7096 18.1546 82.7281 18.1568 82.7389 18.1568C82.7671 18.1568 82.7834 18.1448 82.7878 18.121L82.8138 17.9842C82.8247 17.9321 82.8377 17.8984 82.8529 17.8832C82.8703 17.868 82.905 17.8604 82.9571 17.8604L83.8136 17.8474L82.5924 19.7982V19.8633C82.5924 19.9176 82.6184 19.9447 82.6705 19.9447H84.1621C84.2121 19.9447 84.2424 19.9187 84.2533 19.8666L84.3347 19.4139C84.3217 19.4074 84.3032 19.4019 84.2794 19.3976ZM76.9277 19.9818C76.8516 19.9818 76.7865 19.9569 76.7354 19.9058C76.6843 19.8547 76.6594 19.7896 76.6594 19.7135C76.6594 19.641 76.6848 19.5783 76.7354 19.5277C76.7865 19.4766 76.8516 19.4517 76.9277 19.4517C77.0019 19.4517 77.065 19.4768 77.1139 19.528C77.1642 19.5786 77.1895 19.6411 77.1895 19.7135C77.1895 19.7894 77.1647 19.8545 77.1139 19.9055C77.065 19.9567 77.0019 19.9818 76.9277 19.9818ZM77.0873 19.5539C77.0461 19.5105 76.9929 19.4888 76.9277 19.4888C76.8604 19.4888 76.8051 19.5105 76.7616 19.5539C76.7182 19.5974 76.6965 19.6505 76.6965 19.7135C76.6965 19.7808 76.7182 19.8362 76.7616 19.8796C76.8051 19.923 76.8604 19.9447 76.9277 19.9447C76.9929 19.9447 77.0461 19.923 77.0873 19.8796C77.1307 19.8362 77.1525 19.7808 77.1525 19.7135C77.1525 19.6505 77.1307 19.5974 77.0873 19.5539Z" fill="#34F3FF"/>
</svg>
