<svg width="357" height="82" viewBox="0 0 357 82" fill="none" xmlns="http://www.w3.org/2000/svg">
<path fill-rule="evenodd" clip-rule="evenodd" d="M0.357638 81.3731H18.776C18.1203 80.7175 16.809 78.512 16.809 74.9357V55.2656L44.3471 81.3731H65.8054L37.9096 54.7291C46.6717 54.6099 64.196 45.4305 64.196 28.4427C64.196 5.73273 42.3801 0.368164 37.9096 0.368164H0C0.774882 1.6199 2.32465 5.41086 2.32465 10.5608V74.9357C2.32465 77.4391 1.21597 80.2287 0.357638 81.3731ZM16.8079 50.2446H37.3721C40.8293 48.2179 49.5318 40.6956 49.5318 26.8193C49.5318 12.9429 41.3657 6.3743 37.3721 4.82454H16.8079V50.2446Z" fill="white"/>
<path d="M129.981 81.6049H70.7637C72.3428 79.1601 72.8572 75.793 72.917 74.415V8.08862C72.917 4.63748 71.4815 1.25823 70.7637 0H129.981V10.6051C128.833 9.5985 125.495 8.08862 123.342 8.08862H87.2729V37.2077H111.678C114.692 37.2077 117.6 35.7697 118.676 35.0507V45.1165C116.379 42.9596 113.054 42.5402 111.678 42.6001H87.2729V74.415H121.547C126.859 74.415 129.383 72.7374 129.981 71.8986V81.6049Z" fill="white"/>
<path fill-rule="evenodd" clip-rule="evenodd" d="M133.033 81.7308H142.689C142.63 80.4194 142.868 77.4391 143.405 75.1145C143.696 73.8516 144.378 72.0595 145.03 70.3443C145.516 69.0661 145.986 67.8306 146.266 66.8888H181.672C182.864 68.9154 185.248 76.3662 185.248 81.552H204.382C203.607 80.5387 201.843 78.0829 200.984 76.3662C200.126 74.6496 181.672 24.9856 172.552 0.368164H157.353L161.465 10.9185L137.504 73.8627C137.34 74.1907 137.146 74.5921 136.931 75.0398C135.893 77.1957 134.336 80.4278 133.033 81.7308ZM180.234 61.3291L164.14 18.949L148.046 61.3291H180.234Z" fill="white"/>
<path d="M218.739 81.6049H208.697C211.208 76.0572 210.849 73.7308 210.849 69.9726V9.12687C210.849 4.54554 209.414 1.1334 208.697 0H216.587L248.862 43.8447L280.779 0H287.055C285.764 1.718 285.202 5.36874 285.083 6.97937V73.3728C285.083 76.093 286.637 79.9943 287.414 81.6049H268.407C269.841 80.1733 270.798 75.5203 271.096 73.3728V26.1279L253.166 49.9293L256.393 54.4033L251.911 60.5773L247.428 66.7514L216.587 25.2331V69.9726C216.587 75.413 218.021 79.9943 218.739 81.6049Z" fill="white"/>
<path fill-rule="evenodd" clip-rule="evenodd" d="M292.699 81.358H311.475C310.76 80.0467 309.329 76.7088 309.329 73.8477V54.1776H334.007C341.338 53.7007 356.001 47.4182 356.001 26.103C356.001 4.78778 341.338 -0.0641747 334.007 0.174251H292.521C293.355 1.36643 295.024 4.68064 295.024 8.40007V73.8477C295.024 76.3513 294.13 79.4982 292.699 81.358ZM309.148 48.4552H330.785C334.659 46.9055 342.408 40.0508 342.408 26.4605C342.408 11.2967 332.573 5.5387 328.818 5.5387H309.148V48.4552Z" fill="white"/>
<path d="M320.349 81.3718C320.069 81.3718 319.838 81.2814 319.657 81.1006C319.477 80.9198 319.386 80.6892 319.386 80.4089C319.386 80.1467 319.477 79.9252 319.657 79.7444C319.838 79.5636 320.069 79.4731 320.349 79.4731C320.62 79.4731 320.842 79.5636 321.014 79.7444C321.194 79.9252 321.285 80.1467 321.285 80.4089C321.285 80.6892 321.194 80.9198 321.014 81.1006C320.842 81.2814 320.62 81.3718 320.349 81.3718Z" fill="white"/>
<path d="M329.148 81.3718C329.058 81.3718 329.013 81.3266 329.013 81.2362C329.013 81.2 329.022 81.1277 329.04 81.0192C329.067 80.9107 329.098 80.8248 329.135 80.7615C329.343 80.7525 329.496 80.7344 329.596 80.7073C329.695 80.6802 329.745 80.6259 329.745 80.5445C329.745 80.418 329.632 80.201 329.406 79.8936L327.724 77.3846L326.029 79.88C325.848 80.1422 325.758 80.3275 325.758 80.436C325.758 80.5897 325.97 80.6711 326.395 80.6802C326.386 80.7977 326.368 80.9107 326.341 81.0192C326.323 81.1187 326.305 81.191 326.287 81.2362C326.26 81.3266 326.21 81.3718 326.137 81.3718H323.588C323.497 81.3718 323.452 81.3266 323.452 81.2362C323.452 81.2 323.461 81.1277 323.479 81.0192C323.506 80.9107 323.538 80.8248 323.574 80.7615C323.9 80.7434 324.185 80.6666 324.429 80.531C324.673 80.3863 324.908 80.1467 325.134 79.8122L327.263 76.7065L325.08 73.4516C324.908 73.1985 324.763 73.0131 324.646 72.8956C324.528 72.778 324.397 72.6967 324.252 72.6515C324.108 72.6062 323.909 72.5791 323.656 72.5701C323.656 72.326 323.674 72.1406 323.71 72.014C323.737 71.9236 323.787 71.8784 323.859 71.8784H326.829C326.92 71.8784 326.965 71.9236 326.965 72.014C326.965 72.0502 326.951 72.1225 326.924 72.231C326.906 72.3395 326.879 72.4254 326.843 72.4887C326.472 72.4977 326.287 72.5882 326.287 72.7599C326.287 72.8865 326.377 73.0764 326.558 73.3296L328.145 75.6893L329.691 73.3702C329.872 73.108 329.962 72.9227 329.962 72.8142C329.962 72.6605 329.749 72.5791 329.325 72.5701C329.334 72.4525 329.352 72.344 329.379 72.2446C329.406 72.1361 329.424 72.0592 329.433 72.014C329.46 71.9236 329.51 71.8784 329.582 71.8784H332.145C332.236 71.8784 332.281 71.9236 332.281 72.014C332.281 72.0502 332.267 72.1225 332.24 72.231C332.222 72.3395 332.195 72.4254 332.159 72.4887C331.833 72.5068 331.549 72.5836 331.305 72.7193C331.07 72.8549 330.834 73.0945 330.599 73.438L328.592 76.3539L330.898 79.7986C331.07 80.0427 331.219 80.2281 331.345 80.3547C331.481 80.4722 331.626 80.5536 331.779 80.5988C331.942 80.635 332.15 80.6621 332.403 80.6802C332.403 80.9243 332.385 81.1096 332.349 81.2362C332.322 81.3266 332.272 81.3718 332.2 81.3718H329.148Z" fill="white"/>
<path d="M336.216 81.3718C336.126 81.3718 336.081 81.3266 336.081 81.2362C336.081 81.2 336.09 81.1277 336.108 81.0192C336.135 80.9107 336.166 80.8248 336.203 80.7615C336.6 80.7434 336.872 80.653 337.016 80.4903C337.161 80.3185 337.233 80.0473 337.233 79.6766V77.3168L334.819 73.4516C334.647 73.1985 334.512 73.0131 334.412 72.8956C334.313 72.778 334.204 72.6967 334.087 72.6515C333.969 72.6062 333.793 72.5791 333.558 72.5701C333.558 72.326 333.576 72.1406 333.612 72.014C333.639 71.9236 333.689 71.8784 333.761 71.8784H336.582C336.673 71.8784 336.718 71.9236 336.718 72.014C336.718 72.0502 336.704 72.1225 336.677 72.231C336.659 72.3395 336.632 72.4254 336.596 72.4887C336.243 72.5068 336.067 72.6243 336.067 72.8413C336.067 72.9679 336.126 73.1306 336.243 73.3296L338.115 76.3132C338.142 76.3584 338.169 76.3584 338.196 76.3132L339.81 73.3702C339.882 73.2256 339.941 73.108 339.986 73.0176C340.032 72.9272 340.054 72.8504 340.054 72.7871C340.054 72.7057 340.004 72.6515 339.905 72.6243C339.806 72.5972 339.647 72.5791 339.43 72.5701C339.439 72.4525 339.457 72.344 339.485 72.2446C339.512 72.1361 339.53 72.0592 339.539 72.014C339.566 71.9236 339.616 71.8784 339.688 71.8784H342.102C342.192 71.8784 342.238 71.9236 342.238 72.014C342.238 72.0502 342.224 72.1225 342.197 72.231C342.179 72.3395 342.152 72.4254 342.116 72.4887C341.844 72.5068 341.587 72.5791 341.343 72.7057C341.108 72.8323 340.886 73.0764 340.678 73.438L338.549 77.1947V79.6766C338.549 80.0744 338.567 80.3321 338.603 80.4496C338.639 80.5671 338.725 80.635 338.861 80.653C338.951 80.6621 339.069 80.6711 339.213 80.6802C339.367 80.6802 339.489 80.6802 339.58 80.6802C339.58 80.9243 339.561 81.1096 339.525 81.2362C339.498 81.3266 339.448 81.3718 339.376 81.3718H336.216Z" fill="white"/>
<path d="M344.264 81.3718C344.047 81.3718 343.938 81.2588 343.938 81.0328V80.7615L349.024 72.6379L345.457 72.6921C345.24 72.6921 345.096 72.7238 345.023 72.7871C344.96 72.8504 344.906 72.9905 344.86 73.2075L344.752 73.7771C344.734 73.8766 344.666 73.9263 344.549 73.9263C344.503 73.9263 344.426 73.9172 344.318 73.8992C344.209 73.8811 344.128 73.8585 344.074 73.8313L344.182 72.1497C344.191 72.0502 344.214 71.9824 344.25 71.9462C344.286 71.901 344.354 71.8784 344.454 71.8784H350.407C350.588 71.8784 350.679 71.9688 350.679 72.1497V72.3802L345.579 80.5852L349.363 80.5174C349.625 80.5084 349.82 80.4496 349.946 80.3411C350.082 80.2326 350.19 80.0789 350.272 79.88L350.543 79.2019C350.588 79.1024 350.656 79.0527 350.746 79.0527C350.792 79.0527 350.864 79.0663 350.963 79.0934C351.063 79.1115 351.14 79.1341 351.194 79.1612L350.855 81.0463C350.81 81.2633 350.683 81.3718 350.475 81.3718H344.264Z" fill="white"/>
<path fill-rule="evenodd" clip-rule="evenodd" d="M328.888 80.9874L328.89 80.9814C328.918 80.8657 328.954 80.7648 329 80.6846L329.042 80.6106L329.128 80.6069C329.333 80.5979 329.473 80.5803 329.555 80.5579C329.575 80.5525 329.585 80.547 329.59 80.5439C329.59 80.5191 329.577 80.4608 329.523 80.3579C329.471 80.2591 329.392 80.1351 329.281 79.9847L329.277 79.9793L327.723 77.6604L326.156 79.9673C326.068 80.0951 326.005 80.2 325.964 80.283C325.923 80.3676 325.912 80.4147 325.912 80.4339C325.917 80.4392 325.933 80.4527 325.972 80.4678C326.053 80.4988 326.191 80.521 326.398 80.5254L326.561 80.5289L326.549 80.6917C326.539 80.8156 326.52 80.9356 326.492 81.0514C326.474 81.1469 326.455 81.2279 326.432 81.2868C326.414 81.3463 326.383 81.4059 326.333 81.4519C326.277 81.5024 326.209 81.5259 326.137 81.5259H323.587C323.518 81.5259 323.438 81.5086 323.377 81.4468C323.315 81.385 323.297 81.3049 323.297 81.2359C323.297 81.1847 323.309 81.0997 323.327 80.9935L323.328 80.9874L323.329 80.9814C323.358 80.8657 323.394 80.7648 323.44 80.6846L323.481 80.6116L323.565 80.607C323.871 80.59 324.131 80.5186 324.351 80.3967C324.569 80.2674 324.788 80.0475 325.006 79.7254L325.006 79.7245L327.076 76.7052L324.951 73.538C324.951 73.5379 324.952 73.5381 324.951 73.538C324.782 73.2876 324.643 73.1115 324.536 73.0044C324.434 72.9028 324.325 72.8356 324.206 72.7985C324.08 72.7593 323.897 72.7329 323.65 72.7241L323.501 72.7188V72.5697C323.501 72.3213 323.519 72.1188 323.561 71.9713L323.562 71.9693C323.58 71.9076 323.611 71.8453 323.663 71.7977C323.719 71.7472 323.787 71.7236 323.859 71.7236H326.829C326.898 71.7236 326.978 71.741 327.04 71.8028C327.101 71.8646 327.119 71.9447 327.119 72.0137C327.119 72.0711 327.1 72.1599 327.075 72.2623C327.055 72.378 327.024 72.4814 326.976 72.565L326.933 72.6406L326.846 72.6428C326.668 72.6471 326.556 72.6712 326.493 72.7018C326.464 72.7162 326.452 72.7288 326.447 72.7352C326.444 72.74 326.441 72.7462 326.441 72.7596C326.441 72.7896 326.453 72.8443 326.494 72.9305C326.534 73.0144 326.596 73.1171 326.683 73.2394L326.686 73.243L328.144 75.4114L329.563 73.2822C329.651 73.1544 329.714 73.0496 329.755 72.9665C329.796 72.882 329.807 72.8349 329.807 72.8156C329.802 72.8104 329.786 72.7969 329.747 72.7818C329.666 72.7508 329.528 72.7286 329.321 72.7242L329.158 72.7207L329.17 72.5579C329.18 72.4326 329.199 72.3149 329.229 72.2052C329.256 72.0976 329.273 72.0244 329.281 71.9834L329.283 71.9763L329.285 71.9693C329.303 71.9076 329.334 71.8453 329.386 71.7977C329.442 71.7472 329.51 71.7236 329.582 71.7236H332.145C332.214 71.7236 332.294 71.741 332.356 71.8028C332.418 71.8646 332.435 71.9447 332.435 72.0137C332.435 72.0711 332.417 72.1599 332.391 72.2623C332.372 72.378 332.341 72.4814 332.293 72.565L332.251 72.6379L332.167 72.6426C331.862 72.6596 331.601 72.7312 331.38 72.8533C331.173 72.973 330.954 73.1918 330.726 73.5249L328.779 76.3548L331.025 79.7109C331.192 79.9484 331.334 80.1239 331.45 80.2412C331.568 80.3427 331.691 80.4107 331.818 80.4488C331.97 80.4822 332.168 80.5082 332.414 80.5258L332.557 80.536V80.6798C332.557 80.9283 332.539 81.1308 332.497 81.2783L332.496 81.2802C332.478 81.342 332.447 81.4042 332.395 81.4519C332.339 81.5024 332.271 81.5259 332.199 81.5259H329.148C329.079 81.5259 328.999 81.5086 328.937 81.4468C328.875 81.385 328.858 81.3049 328.858 81.2359C328.858 81.1847 328.869 81.0997 328.887 80.9935L328.888 80.9874ZM331.779 80.5984C331.625 80.5532 331.481 80.4719 331.345 80.3543C331.218 80.2278 331.069 80.0424 330.897 79.7983L328.592 76.3535L330.599 73.4377C330.834 73.0941 331.069 72.8545 331.304 72.7189C331.548 72.5833 331.833 72.5065 332.159 72.4884C332.195 72.4251 332.222 72.3392 332.24 72.2307C332.267 72.1222 332.281 72.0499 332.281 72.0137C332.281 71.9233 332.236 71.8781 332.145 71.8781H329.582C329.51 71.8781 329.46 71.9233 329.433 72.0137C329.424 72.0589 329.406 72.1358 329.378 72.2443C329.364 72.2987 329.351 72.3558 329.342 72.4157C329.334 72.4652 329.328 72.5165 329.324 72.5697C329.379 72.5709 329.431 72.5733 329.479 72.5769C329.801 72.6011 329.962 72.6801 329.962 72.8139C329.962 72.9224 329.871 73.1077 329.69 73.3699L328.144 75.689L326.558 73.3292C326.377 73.0761 326.286 72.8862 326.286 72.7596C326.286 72.5878 326.472 72.4974 326.842 72.4884C326.879 72.4251 326.906 72.3392 326.924 72.2307C326.951 72.1222 326.964 72.0499 326.964 72.0137C326.964 71.9233 326.919 71.8781 326.829 71.8781H323.859C323.786 71.8781 323.737 71.9233 323.71 72.0137C323.673 72.1403 323.655 72.3256 323.655 72.5697C323.908 72.5788 324.107 72.6059 324.252 72.6511C324.397 72.6963 324.528 72.7777 324.645 72.8952C324.763 73.0128 324.907 73.1981 325.079 73.4513L327.263 76.7062L325.134 79.8119C324.907 80.1464 324.672 80.386 324.428 80.5306C324.184 80.6663 323.899 80.7431 323.574 80.7612C323.538 80.8245 323.506 80.9104 323.479 81.0189C323.461 81.1274 323.452 81.1997 323.452 81.2359C323.452 81.3263 323.497 81.3715 323.587 81.3715H326.137C326.209 81.3715 326.259 81.3263 326.286 81.2359C326.304 81.1907 326.322 81.1183 326.341 81.0189C326.356 80.9586 326.368 80.897 326.377 80.8339C326.385 80.7834 326.391 80.7321 326.395 80.6798C326.34 80.6786 326.288 80.6763 326.24 80.6727C325.918 80.6485 325.757 80.5695 325.757 80.4357C325.757 80.3272 325.848 80.1419 326.029 79.8797L327.724 77.3843L329.406 79.8932C329.632 80.2006 329.745 80.4176 329.745 80.5442C329.745 80.6256 329.695 80.6798 329.595 80.7069C329.496 80.7341 329.342 80.7521 329.134 80.7612C329.098 80.8245 329.067 80.9104 329.039 81.0189C329.021 81.1274 329.012 81.1997 329.012 81.2359C329.012 81.3263 329.057 81.3715 329.148 81.3715H332.199C332.272 81.3715 332.321 81.3263 332.349 81.2359C332.385 81.1093 332.403 80.9239 332.403 80.6798C332.15 80.6617 331.942 80.6346 331.779 80.5984ZM335.956 80.9874L335.957 80.9814C335.986 80.8657 336.022 80.7648 336.068 80.6846L336.11 80.6108L336.195 80.6069C336.581 80.5894 336.797 80.5022 336.899 80.3888C337.009 80.2578 337.079 80.031 337.079 79.6762V77.3607L334.689 73.5356C334.519 73.2847 334.388 73.1057 334.294 72.995C334.208 72.8929 334.12 72.8293 334.031 72.7953C333.938 72.7593 333.782 72.7329 333.552 72.7241L333.403 72.7184V72.5697C333.403 72.3213 333.421 72.1188 333.463 71.9713L333.464 71.9693C333.482 71.9076 333.513 71.8453 333.566 71.7977C333.621 71.7472 333.69 71.7236 333.761 71.7236H336.582C336.651 71.7236 336.731 71.741 336.793 71.8028C336.855 71.8646 336.872 71.9447 336.872 72.0137C336.872 72.0711 336.854 72.1599 336.828 72.2623C336.808 72.378 336.777 72.4814 336.73 72.565L336.688 72.6383L336.603 72.6426C336.438 72.6511 336.339 72.6824 336.285 72.7186C336.241 72.7479 336.221 72.7826 336.221 72.841C336.221 72.9252 336.262 73.058 336.375 73.2489L338.149 76.0772L339.673 73.2982L339.724 73.1967L339.729 73.186L339.732 73.1792C339.737 73.17 339.729 73.1853 339.734 73.1762L339.734 73.1754L339.735 73.1747L339.757 73.1308L339.757 73.1301L339.778 73.0878L339.779 73.0865L339.783 73.0785L339.789 73.0653L339.791 73.0627L339.796 73.0511L339.797 73.0498L339.817 73.0091L339.845 72.9546L339.848 72.9482C339.888 72.8681 339.899 72.8162 339.899 72.787C339.895 72.784 339.884 72.7785 339.864 72.773C339.782 72.7507 339.639 72.733 339.424 72.7241L339.264 72.7174L339.276 72.5579C339.286 72.4326 339.305 72.3149 339.335 72.2052C339.362 72.0976 339.379 72.0244 339.387 71.9834L339.388 71.9763L339.391 71.9693C339.409 71.9076 339.44 71.8453 339.492 71.7977C339.548 71.7472 339.616 71.7236 339.688 71.7236H342.102C342.171 71.7236 342.251 71.741 342.313 71.8028C342.374 71.8646 342.392 71.9447 342.392 72.0137C342.392 72.0711 342.373 72.1599 342.348 72.2623C342.328 72.378 342.297 72.4814 342.249 72.565L342.208 72.637L342.126 72.6425C341.876 72.6591 341.64 72.7254 341.414 72.8419C341.216 72.9493 341.012 73.1655 340.812 73.5143C340.812 73.5144 340.812 73.5141 340.812 73.5143L338.703 77.2351V79.6762C338.703 79.8732 338.707 80.0332 338.716 80.157C338.725 80.284 338.738 80.363 338.75 80.4038C338.76 80.4365 338.775 80.4549 338.79 80.4671C338.806 80.4797 338.833 80.4929 338.879 80.4993C338.965 80.5079 339.078 80.5166 339.218 80.5254H339.734V80.6798C339.734 80.9283 339.716 81.1308 339.673 81.2783L339.673 81.2802C339.654 81.342 339.624 81.4042 339.571 81.4519C339.516 81.5024 339.447 81.5259 339.376 81.5259H336.216C336.147 81.5259 336.067 81.5086 336.005 81.4468C335.943 81.385 335.926 81.3049 335.926 81.2359C335.926 81.1847 335.937 81.0997 335.955 80.9935L335.956 80.9874ZM339.213 80.6798C339.068 80.6708 338.951 80.6617 338.86 80.6527C338.725 80.6346 338.639 80.5668 338.603 80.4493C338.567 80.3317 338.548 80.074 338.548 79.6762V77.1944L340.678 73.4377C340.886 73.0761 341.107 72.8319 341.342 72.7054C341.586 72.5788 341.844 72.5065 342.115 72.4884C342.151 72.4251 342.179 72.3392 342.197 72.2307C342.224 72.1222 342.237 72.0499 342.237 72.0137C342.237 71.9233 342.192 71.8781 342.102 71.8781H339.688C339.615 71.8781 339.566 71.9233 339.538 72.0137C339.529 72.0589 339.511 72.1358 339.484 72.2443C339.469 72.2988 339.457 72.356 339.448 72.4159C339.44 72.4653 339.434 72.5166 339.43 72.5697C339.485 72.572 339.537 72.5749 339.584 72.5784C339.724 72.5886 339.831 72.6038 339.905 72.624C340.004 72.6511 340.054 72.7054 340.054 72.7867C340.054 72.85 340.031 72.9269 339.986 73.0173L339.81 73.3699L338.196 76.3129C338.169 76.3581 338.142 76.3581 338.114 76.3129L338.064 76.2325L336.243 73.3292C336.125 73.1303 336.067 72.9676 336.067 72.841C336.067 72.624 336.243 72.5065 336.596 72.4884C336.632 72.4251 336.659 72.3392 336.677 72.2307C336.704 72.1222 336.718 72.0499 336.718 72.0137C336.718 71.9233 336.672 71.8781 336.582 71.8781H333.761C333.689 71.8781 333.639 71.9233 333.612 72.0137C333.576 72.1403 333.558 72.3256 333.558 72.5697C333.793 72.5788 333.969 72.6059 334.087 72.6511C334.204 72.6963 334.313 72.7777 334.412 72.8952C334.512 73.0128 334.647 73.1981 334.819 73.4513L337.233 77.3164V79.6762C337.233 80.0469 337.161 80.3182 337.016 80.49C336.871 80.6527 336.6 80.7431 336.202 80.7612C336.166 80.8245 336.134 80.9104 336.107 81.0189C336.089 81.1274 336.08 81.1997 336.08 81.2359C336.08 81.3263 336.125 81.3715 336.216 81.3715H339.376C339.448 81.3715 339.498 81.3263 339.525 81.2359C339.553 81.1375 339.57 81.0036 339.576 80.8343C339.578 80.7857 339.579 80.7342 339.579 80.6798H339.213ZM343.783 80.7168L348.742 72.7963L345.457 72.8463C345.355 72.8462 345.276 72.8538 345.219 72.8664C345.166 72.8779 345.14 72.8916 345.128 72.8999C345.118 72.9122 345.1 72.9402 345.079 72.9951C345.056 73.0543 345.033 73.1343 345.012 73.2374C345.011 73.2378 345.011 73.2382 345.011 73.2387L344.904 73.8044C344.904 73.8047 344.903 73.8049 344.903 73.8052C344.889 73.8852 344.85 73.9606 344.779 74.0132C344.709 74.0639 344.627 74.0804 344.548 74.0804C344.489 74.0804 344.401 74.0692 344.292 74.0512C344.179 74.0323 344.079 74.0066 344.004 73.9692L343.913 73.9233L344.028 72.1353C344.038 72.0321 344.062 71.9196 344.135 71.8429C344.216 71.747 344.342 71.7236 344.453 71.7236H350.407C350.521 71.7236 350.635 71.7523 350.72 71.8367C350.804 71.9211 350.833 72.0351 350.833 72.1493V72.424L345.86 80.4254L349.357 80.3627C349.358 80.3627 349.358 80.3627 349.359 80.3627C349.604 80.354 349.757 80.2992 349.845 80.2235L349.849 80.2201C349.96 80.1316 350.054 80.0018 350.128 79.8219C350.128 79.8216 350.128 79.8221 350.128 79.8219L350.402 79.1376C350.432 79.0708 350.475 79.0096 350.536 78.9651C350.598 78.9193 350.671 78.8979 350.746 78.8979C350.812 78.8979 350.9 78.9159 350.997 78.9423C351.1 78.9614 351.191 78.9869 351.263 79.0227L351.366 79.0744L351.006 81.0775C350.978 81.2084 350.923 81.3246 350.826 81.4074C350.728 81.4911 350.606 81.5259 350.475 81.5259H344.263C344.129 81.5259 344.001 81.4907 343.908 81.3937C343.816 81.2978 343.783 81.1677 343.783 81.0324V80.7168ZM350.963 79.0931C350.864 79.0659 350.791 79.0524 350.746 79.0524C350.656 79.0524 350.588 79.1021 350.543 79.2016L350.271 79.8797C350.19 80.0786 350.081 80.2323 349.946 80.3408C349.819 80.4493 349.625 80.508 349.363 80.5171L345.579 80.5849L350.678 72.3799V72.1493C350.678 71.9685 350.588 71.8781 350.407 71.8781H344.453C344.354 71.8781 344.286 71.9007 344.25 71.9459C344.214 71.9821 344.191 72.0499 344.182 72.1493L344.074 73.831C344.128 73.8581 344.209 73.8807 344.318 73.8988C344.426 73.9169 344.503 73.9259 344.548 73.9259C344.666 73.9259 344.734 73.8762 344.752 73.7768L344.86 73.2072C344.905 72.9902 344.96 72.85 345.023 72.7867C345.095 72.7234 345.24 72.6918 345.457 72.6918L349.024 72.6376L343.938 80.7612V81.0324C343.938 81.2585 344.046 81.3715 344.263 81.3715H350.475C350.683 81.3715 350.809 81.263 350.855 81.046L351.194 79.1609C351.139 79.1338 351.062 79.1111 350.963 79.0931ZM320.349 81.5259C320.032 81.5259 319.761 81.4222 319.548 81.2095C319.335 80.9967 319.231 80.7255 319.231 80.4086C319.231 80.1066 319.337 79.8454 319.548 79.6348C319.761 79.4221 320.032 79.3184 320.349 79.3184C320.658 79.3184 320.92 79.4228 321.124 79.6362C321.334 79.8466 321.439 80.1072 321.439 80.4086C321.439 80.7248 321.336 80.9955 321.124 81.208C320.92 81.4215 320.658 81.5259 320.349 81.5259ZM321.013 79.744C320.842 79.5632 320.62 79.4728 320.349 79.4728C320.069 79.4728 319.838 79.5632 319.657 79.744C319.476 79.9249 319.386 80.1464 319.386 80.4086C319.386 80.6889 319.476 80.9194 319.657 81.1002C319.838 81.2811 320.069 81.3715 320.349 81.3715C320.62 81.3715 320.842 81.2811 321.013 81.1002C321.194 80.9194 321.285 80.6889 321.285 80.4086C321.285 80.1464 321.194 79.9249 321.013 79.744Z" fill="white"/>
</svg>
