<svg width="18" height="18" viewBox="0 0 18 18" fill="none" xmlns="http://www.w3.org/2000/svg">
<path d="M15.9735 8.97769C15.9735 13.0114 12.6875 16.2822 8.6329 16.2822C4.57833 16.2822 1.29228 13.0114 1.29228 8.97769C1.29228 4.94399 4.57833 1.6732 8.6329 1.6732C12.6875 1.6732 15.9735 4.94399 15.9735 8.97769ZM8.6329 17.4694C13.3449 17.4694 17.1656 13.668 17.1656 8.97769C17.1656 4.28737 13.3449 0.485937 8.6329 0.485937C3.92088 0.485937 0.100195 4.28737 0.100195 8.97769C0.100195 13.668 3.92088 17.4694 8.6329 17.4694Z" fill="#C0C0C0" stroke="#C0C0C0" stroke-width="0.2"/>
<path fill-rule="evenodd" clip-rule="evenodd" d="M8.78169 5.02856C9.13784 5.02856 9.42655 5.24957 9.42655 5.5222V12.4331C9.42655 12.7057 9.13784 12.9267 8.78169 12.9267C8.42555 12.9267 8.13684 12.7057 8.13684 12.4331V5.5222C8.13684 5.24957 8.42555 5.02856 8.78169 5.02856Z" fill="#C0C0C0"/>
<path fill-rule="evenodd" clip-rule="evenodd" d="M4.66455 8.82947C4.66455 8.47506 4.88664 8.18775 5.16059 8.18775L12.1052 8.18775C12.3791 8.18775 12.6012 8.47506 12.6012 8.82947C12.6012 9.18388 12.3791 9.47119 12.1052 9.47119L5.16059 9.47119C4.88664 9.47119 4.66455 9.18388 4.66455 8.82947Z" fill="#C0C0C0"/>
</svg>
