<svg width="16" height="13" viewBox="0 0 16 13" fill="none" xmlns="http://www.w3.org/2000/svg">
<path fill-rule="evenodd" clip-rule="evenodd" d="M16 12.0242C16 12.4283 15.6031 12.7559 15.1135 12.7559L4.38652 12.7559C3.89691 12.7559 3.5 12.4283 3.5 12.0242C3.5 11.62 3.89691 11.2924 4.38652 11.2924L15.1135 11.2924C15.6031 11.2924 16 11.62 16 12.0242Z" fill="#C0C0C0"/>
<path fill-rule="evenodd" clip-rule="evenodd" d="M16 7.82884C16 8.23295 15.6983 8.56055 15.3262 8.56055L7.17376 8.56055C6.80165 8.56055 6.5 8.23295 6.5 7.82884C6.5 7.42473 6.80165 7.09713 7.17376 7.09713L15.3262 7.09713C15.6983 7.09713 16 7.42473 16 7.82884Z" fill="#C0C0C0"/>
<path fill-rule="evenodd" clip-rule="evenodd" d="M16 3.63353C16 4.03764 15.6887 4.36523 15.3046 4.36523L9.79541 4.36523C9.41134 4.36523 9.1 4.03764 9.1 3.63353C9.1 3.22942 9.41134 2.90182 9.79541 2.90182L15.3046 2.90182C15.6887 2.90182 16 3.22942 16 3.63353Z" fill="#C0C0C0"/>
<path fill-rule="evenodd" clip-rule="evenodd" d="M7 3.63353C7 4.03764 6.68414 4.36523 6.29451 4.36523L0.705487 4.36523C0.315856 4.36523 -2.93554e-08 4.03764 -6.55671e-08 3.63353C-1.01779e-07 3.22942 0.315856 2.90182 0.705487 2.90182L6.29451 2.90182C6.68414 2.90182 7 3.22942 7 3.63353Z" fill="#C0C0C0"/>
<path fill-rule="evenodd" clip-rule="evenodd" d="M3.6001 0.121094C4.01431 0.121094 4.3501 0.429247 4.3501 0.809374L4.3501 6.26208C4.3501 6.64221 4.01431 6.95036 3.6001 6.95036C3.18588 6.95036 2.8501 6.64221 2.8501 6.26208L2.8501 0.809374C2.8501 0.429247 3.18588 0.121094 3.6001 0.121094Z" fill="#C0C0C0"/>
</svg>
