<svg width="22" height="18" viewBox="0 0 22 18" fill="none" xmlns="http://www.w3.org/2000/svg">
<path fill-rule="evenodd" clip-rule="evenodd" d="M0.917969 1.80298C0.917969 1.25919 1.38518 0.818359 1.96151 0.818359L14.5884 0.818359C15.1647 0.818359 15.6319 1.25919 15.6319 1.80298C15.6319 2.34677 15.1647 2.7876 14.5884 2.7876H1.96151C1.38518 2.7876 0.917969 2.34677 0.917969 1.80298Z" fill="#C0C0C0"/>
<path fill-rule="evenodd" clip-rule="evenodd" d="M0.917969 7.59497C0.917969 7.05118 1.38518 6.61035 1.96151 6.61035L14.5884 6.61035C15.1647 6.61035 15.6319 7.05118 15.6319 7.59497C15.6319 8.13876 15.1647 8.57959 14.5884 8.57959H1.96151C1.38518 8.57959 0.917969 8.13876 0.917969 7.59497Z" fill="#C0C0C0"/>
<path fill-rule="evenodd" clip-rule="evenodd" d="M0.917969 13.387C0.917969 12.8432 1.38518 12.4023 1.96151 12.4023L10.2287 12.4023C10.805 12.4023 11.2722 12.8432 11.2722 13.387C11.2722 13.9308 10.805 14.3716 10.2287 14.3716H1.96151C1.38518 14.3716 0.917969 13.9308 0.917969 13.387Z" fill="#C0C0C0"/>
<path fill-rule="evenodd" clip-rule="evenodd" d="M12.9072 13.387C12.9072 12.8432 13.3744 12.4023 13.9508 12.4023L20.0381 12.4023C20.6144 12.4023 21.0816 12.8432 21.0816 13.387C21.0816 13.9308 20.6144 14.3716 20.0381 14.3716H13.9508C13.3744 14.3716 12.9072 13.9308 12.9072 13.387Z" fill="#C0C0C0"/>
<path fill-rule="evenodd" clip-rule="evenodd" d="M17.1032 17.5649C16.5915 17.5649 16.1768 17.0684 16.1768 16.4559L16.1768 10.0848C16.1768 9.47224 16.5915 8.97569 17.1032 8.97569C17.6148 8.97569 18.0296 9.47224 18.0296 10.0848L18.0296 16.4559C18.0296 17.0684 17.6148 17.5649 17.1032 17.5649Z" fill="#C0C0C0"/>
</svg>
