<svg width="24" height="24" viewBox="0 0 24 24" fill="none" xmlns="http://www.w3.org/2000/svg">
<path d="M14.2897 20.1113L14.2897 7.5804L10.5225 7.5804H9.23514H6.83091H5.74969L1.51229 7.5804L1.51229 20.1113H14.2897Z" fill="#F0F0F0"/>
<path d="M15.302 17.8973L18.6363 8.78359L15.302 7.62814L15.302 17.8973Z" fill="#F0F0F0"/>
<path d="M22.0712 11.0053L19.5959 9.14345L16.3931 18.1554L22.0712 11.0053Z" fill="#F0F0F0"/>
<path d="M11.5242 6.31902L11.3108 6.58763H12.2993L11.5242 6.31902Z" fill="#F0F0F0"/>
<path d="M10.5146 5.96919L7.76854 5.01758L7.19412 6.58763L10.0235 6.58763L10.5146 5.96919Z" fill="#F0F0F0"/>
<path d="M13.1384 4.2863L12.1795 5.49383L16.9345 7.14159L13.1384 4.2863Z" fill="#F0F0F0"/>
<path d="M11.5242 6.31902L10.5146 5.96919L10.0235 6.58763L11.3108 6.58763L11.5242 6.31902Z" fill="#F0F0F0"/>
</svg>
