<svg width="21" height="21" viewBox="0 0 21 21" fill="none" xmlns="http://www.w3.org/2000/svg">
<path fill-rule="evenodd" clip-rule="evenodd" d="M16.6993 16.5987C20.1989 13.1162 20.1989 7.46979 16.6993 3.98721C13.1998 0.504639 7.52584 0.504639 4.02627 3.98721C0.526701 7.46979 0.526701 13.1162 4.02627 16.5987C7.52584 20.0813 13.1998 20.0813 16.6993 16.5987ZM17.5442 17.4395C21.5104 13.4926 21.5104 7.09336 17.5442 3.14645C13.578 -0.800471 7.14758 -0.800471 3.1814 3.14645C-0.784778 7.09336 -0.784778 13.4926 3.1814 17.4395C7.14758 21.3864 13.578 21.3864 17.5442 17.4395ZM6.98332 6.9299C7.21662 6.69773 7.59488 6.69773 7.82819 6.9299L10.3628 9.4522L12.8974 6.9299C13.1307 6.69773 13.509 6.69773 13.7423 6.9299C13.9756 7.16207 13.9756 7.53849 13.7423 7.77067L11.2077 10.293L13.7423 12.8153C13.9756 13.0474 13.9756 13.4239 13.7423 13.656C13.509 13.8882 13.1307 13.8882 12.8974 13.656L10.3628 11.1337L7.82819 13.656C7.59488 13.8882 7.21662 13.8882 6.98332 13.656C6.75001 13.4239 6.75001 13.0474 6.98332 12.8153L9.51793 10.293L6.98332 7.77067C6.75001 7.53849 6.75001 7.16207 6.98332 6.9299Z" fill="#C0C0C0"/>
</svg>
