<svg width="23" height="23" viewBox="0 0 23 23" fill="none" xmlns="http://www.w3.org/2000/svg">
<mask id="path-1-outside-1_1_347" maskUnits="userSpaceOnUse" x="0" y="0" width="23" height="23" fill="black">
<rect fill="white" width="23" height="23"/>
<path fill-rule="evenodd" clip-rule="evenodd" d="M10.6553 1.01568C8.12323 1.31063 6.26081 2.12744 4.39783 3.76012C3.33617 4.69049 2.25683 6.28546 1.68538 7.7684C0.539473 10.7418 0.844067 14.1702 2.49711 16.9037C3.92593 19.2665 6.27567 21.0281 8.87108 21.6822C10.8979 22.193 13.2376 22.0827 15.0747 21.39C17.6376 20.4235 19.5671 18.7286 20.8403 16.3255C22.3516 13.4729 22.3885 9.79675 20.9351 6.89425C19.3696 3.7678 16.6673 1.75545 13.1941 1.12941C12.6953 1.03953 11.0741 0.966895 10.6553 1.01568ZM11.1568 3.87921V6.08694L10.5769 6.04722C9.46247 5.97087 7.80848 5.75775 7.73156 5.68058C7.69458 5.64338 8.0156 4.88706 8.32226 4.28897C8.81234 3.33318 9.43802 2.56999 10.0829 2.14154C10.3104 1.99035 10.9982 1.67652 11.1097 1.67299C11.1356 1.67217 11.1568 2.66498 11.1568 3.87921ZM12.1687 1.76155C13.1405 2.0577 14.0847 3.06504 14.8256 4.59639C15.3093 5.59611 15.3356 5.67825 15.187 5.72496C15.0011 5.78343 13.1767 5.99995 12.4888 6.04527L11.8463 6.08757V3.87953C11.8463 2.6651 11.8534 1.6718 11.862 1.67217C11.8706 1.67255 12.0086 1.71277 12.1687 1.76155ZM8.83949 2.28518C8.21764 2.98567 7.54783 4.12626 7.14714 5.16722L7.00083 5.5472L6.30494 5.34547C5.54424 5.12492 4.57329 4.77772 4.49199 4.69716C4.41883 4.62471 5.35994 3.7848 6.00449 3.34728C6.6884 2.88301 7.61302 2.43215 8.46268 2.14859C8.82388 2.02805 9.12872 1.92804 9.14013 1.92634C9.15148 1.92464 9.0162 2.08609 8.83949 2.28518ZM15.1543 2.37103C15.822 2.63671 16.3836 2.93475 16.9986 3.34961C17.6394 3.7819 18.5848 4.62414 18.5111 4.69716C18.4296 4.77785 17.4581 5.12737 16.6958 5.35019L15.9976 5.55432L15.9286 5.32306C15.8253 4.97694 15.202 3.7279 14.8938 3.24959C14.7449 3.01846 14.4511 2.62866 14.2408 2.38337L13.8585 1.93735L14.2785 2.06349C14.5095 2.13285 14.9037 2.27127 15.1543 2.37103ZM4.55273 5.474C4.85782 5.59215 5.46012 5.79413 5.89109 5.92285C6.32206 6.05157 6.69742 6.17752 6.72532 6.20263C6.75315 6.22781 6.71961 6.47197 6.65072 6.7452C6.36738 7.86943 6.1928 9.07643 6.10761 10.4993L6.06711 11.1759H3.8791H1.69109L1.69146 10.9084C1.69284 9.89167 2.11002 8.3427 2.70341 7.15074C3.09339 6.36754 3.82124 5.25924 3.94574 5.25924C3.97445 5.25924 4.24757 5.35586 4.55273 5.474ZM19.3859 5.62116C20.4417 7.00893 21.1623 8.89005 21.3028 10.6251L21.3474 11.1759H19.1437H16.94L16.8972 10.4678C16.8151 9.11306 16.6304 7.85149 16.3521 6.7452C16.2834 6.47197 16.2499 6.22812 16.2777 6.20339C16.3056 6.17865 16.6764 6.05459 17.1016 5.92776C17.5268 5.80093 18.1192 5.60052 18.4181 5.48237C18.7168 5.36423 18.9948 5.26566 19.036 5.26339C19.077 5.26113 19.2345 5.42214 19.3859 5.62116ZM8.52392 6.51162C8.98937 6.58079 9.65228 6.65412 9.99706 6.67471C10.3418 6.69522 10.7438 6.72682 10.8903 6.74482L11.1568 6.77762V8.97672V11.1759H8.9542H6.75165L6.79609 10.4363C6.87207 9.17097 7.02684 8.14071 7.3115 7.00534C7.44672 6.46605 7.50125 6.33399 7.57949 6.35703C7.63346 6.37289 8.05847 6.44244 8.52392 6.51162ZM15.6892 6.94297C15.9922 8.08935 16.2322 9.76742 16.2337 10.751L16.2344 11.1759H14.0403H11.8463V8.97672V6.77762L12.1127 6.74419C12.2593 6.72588 12.6753 6.69315 13.0374 6.67149C13.5328 6.64185 15.0239 6.43873 15.4889 6.33758C15.5098 6.33299 15.6 6.60547 15.6892 6.94297ZM6.10761 12.482C6.19317 13.9114 6.32632 14.8573 6.61781 16.1075C6.70539 16.4831 6.76813 16.7983 6.75723 16.8079C6.74632 16.8175 6.46937 16.902 6.14183 16.9957C5.8143 17.0895 5.18028 17.3061 4.73295 17.4773L3.91966 17.7885L3.80808 17.6451C2.95027 16.5426 2.3298 15.2797 1.94397 13.851C1.85025 13.5037 1.69366 12.3977 1.69222 12.0728L1.69109 11.8053H3.8791H6.06711L6.10761 12.482ZM11.1568 14.0302V16.2552L10.3239 16.2971C9.59849 16.3336 8.2728 16.4967 7.66919 16.6235L7.47273 16.6648L7.27897 15.8558C6.99055 14.6514 6.76958 13.0263 6.76889 12.1043L6.7687 11.8053H8.96273H11.1568V14.0302ZM16.2337 12.2302C16.2321 13.2484 15.9958 14.8981 15.688 16.0407C15.5268 16.6393 15.5174 16.6559 15.361 16.6219C14.8369 16.5079 13.3937 16.3331 12.6792 16.2971L11.8463 16.2552V14.0302V11.8053H14.0403H16.2344L16.2337 12.2302ZM21.3029 12.3561C21.2071 13.5446 20.8484 14.8149 20.297 15.9194C20.0539 16.4062 19.5045 17.2736 19.226 17.6106L19.0839 17.7824L18.43 17.5278C18.0705 17.3878 17.4363 17.1715 17.021 17.0473C16.6056 16.923 16.2551 16.8128 16.2422 16.8023C16.2293 16.7917 16.2924 16.4774 16.3824 16.1038C16.6692 14.9135 16.8123 13.9156 16.8972 12.5134L16.94 11.8053H19.1437H21.3474L21.3029 12.3561ZM11.1568 19.1079V21.3121L10.9844 21.273C10.0916 21.0706 9.1617 20.2109 8.40858 18.8917C8.12969 18.4032 7.67452 17.3536 7.72329 17.3114C7.81456 17.2324 9.68431 17.0094 10.7806 16.9467C10.9703 16.9359 11.1325 16.9218 11.1411 16.9154C11.1497 16.9089 11.1568 17.8956 11.1568 19.1079ZM13.3194 17.0317C14.0194 17.0898 15.2325 17.2658 15.2864 17.3169C15.3355 17.3636 14.8937 18.3677 14.59 18.8996C13.8416 20.2106 12.9093 21.0711 12.0187 21.273L11.8463 21.3121L11.8462 19.1237L11.8461 16.9352L12.2067 16.9522C12.405 16.9616 12.9057 16.9974 13.3194 17.0317ZM7.23089 18.0524C7.67283 19.1427 8.26546 20.1024 8.92173 20.7905C9.06209 20.9376 9.15724 21.058 9.13323 21.058C9.10923 21.058 8.81422 20.9702 8.47766 20.863C7.69458 20.6135 6.75647 20.1596 6.07915 19.7027C5.53252 19.334 5.36571 19.1996 4.75483 18.6353L4.40216 18.3096L5.03755 18.0782C5.5539 17.8902 6.81628 17.4941 6.96014 17.4749C6.97926 17.4723 7.10113 17.7322 7.23089 18.0524ZM16.6732 17.6585C17.1414 17.7914 18.6165 18.2931 18.6165 18.3194C18.6165 18.3271 18.3555 18.5604 18.0366 18.838C16.9381 19.7943 15.776 20.4645 14.5254 20.863C14.1888 20.9702 13.8968 21.058 13.8766 21.058C13.8563 21.058 13.9873 20.8958 14.1677 20.6976C14.3481 20.4994 14.6349 20.1383 14.8049 19.8951C15.1162 19.4501 15.7788 18.1471 15.9194 17.7038C15.9747 17.5291 16.0227 17.4733 16.099 17.4952C16.1562 17.5116 16.4146 17.5851 16.6732 17.6585Z"/>
</mask>
<path fill-rule="evenodd" clip-rule="evenodd" d="M10.6553 1.01568C8.12323 1.31063 6.26081 2.12744 4.39783 3.76012C3.33617 4.69049 2.25683 6.28546 1.68538 7.7684C0.539473 10.7418 0.844067 14.1702 2.49711 16.9037C3.92593 19.2665 6.27567 21.0281 8.87108 21.6822C10.8979 22.193 13.2376 22.0827 15.0747 21.39C17.6376 20.4235 19.5671 18.7286 20.8403 16.3255C22.3516 13.4729 22.3885 9.79675 20.9351 6.89425C19.3696 3.7678 16.6673 1.75545 13.1941 1.12941C12.6953 1.03953 11.0741 0.966895 10.6553 1.01568ZM11.1568 3.87921V6.08694L10.5769 6.04722C9.46247 5.97087 7.80848 5.75775 7.73156 5.68058C7.69458 5.64338 8.0156 4.88706 8.32226 4.28897C8.81234 3.33318 9.43802 2.56999 10.0829 2.14154C10.3104 1.99035 10.9982 1.67652 11.1097 1.67299C11.1356 1.67217 11.1568 2.66498 11.1568 3.87921ZM12.1687 1.76155C13.1405 2.0577 14.0847 3.06504 14.8256 4.59639C15.3093 5.59611 15.3356 5.67825 15.187 5.72496C15.0011 5.78343 13.1767 5.99995 12.4888 6.04527L11.8463 6.08757V3.87953C11.8463 2.6651 11.8534 1.6718 11.862 1.67217C11.8706 1.67255 12.0086 1.71277 12.1687 1.76155ZM8.83949 2.28518C8.21764 2.98567 7.54783 4.12626 7.14714 5.16722L7.00083 5.5472L6.30494 5.34547C5.54424 5.12492 4.57329 4.77772 4.49199 4.69716C4.41883 4.62471 5.35994 3.7848 6.00449 3.34728C6.6884 2.88301 7.61302 2.43215 8.46268 2.14859C8.82388 2.02805 9.12872 1.92804 9.14013 1.92634C9.15148 1.92464 9.0162 2.08609 8.83949 2.28518ZM15.1543 2.37103C15.822 2.63671 16.3836 2.93475 16.9986 3.34961C17.6394 3.7819 18.5848 4.62414 18.5111 4.69716C18.4296 4.77785 17.4581 5.12737 16.6958 5.35019L15.9976 5.55432L15.9286 5.32306C15.8253 4.97694 15.202 3.7279 14.8938 3.24959C14.7449 3.01846 14.4511 2.62866 14.2408 2.38337L13.8585 1.93735L14.2785 2.06349C14.5095 2.13285 14.9037 2.27127 15.1543 2.37103ZM4.55273 5.474C4.85782 5.59215 5.46012 5.79413 5.89109 5.92285C6.32206 6.05157 6.69742 6.17752 6.72532 6.20263C6.75315 6.22781 6.71961 6.47197 6.65072 6.7452C6.36738 7.86943 6.1928 9.07643 6.10761 10.4993L6.06711 11.1759H3.8791H1.69109L1.69146 10.9084C1.69284 9.89167 2.11002 8.3427 2.70341 7.15074C3.09339 6.36754 3.82124 5.25924 3.94574 5.25924C3.97445 5.25924 4.24757 5.35586 4.55273 5.474ZM19.3859 5.62116C20.4417 7.00893 21.1623 8.89005 21.3028 10.6251L21.3474 11.1759H19.1437H16.94L16.8972 10.4678C16.8151 9.11306 16.6304 7.85149 16.3521 6.7452C16.2834 6.47197 16.2499 6.22812 16.2777 6.20339C16.3056 6.17865 16.6764 6.05459 17.1016 5.92776C17.5268 5.80093 18.1192 5.60052 18.4181 5.48237C18.7168 5.36423 18.9948 5.26566 19.036 5.26339C19.077 5.26113 19.2345 5.42214 19.3859 5.62116ZM8.52392 6.51162C8.98937 6.58079 9.65228 6.65412 9.99706 6.67471C10.3418 6.69522 10.7438 6.72682 10.8903 6.74482L11.1568 6.77762V8.97672V11.1759H8.9542H6.75165L6.79609 10.4363C6.87207 9.17097 7.02684 8.14071 7.3115 7.00534C7.44672 6.46605 7.50125 6.33399 7.57949 6.35703C7.63346 6.37289 8.05847 6.44244 8.52392 6.51162ZM15.6892 6.94297C15.9922 8.08935 16.2322 9.76742 16.2337 10.751L16.2344 11.1759H14.0403H11.8463V8.97672V6.77762L12.1127 6.74419C12.2593 6.72588 12.6753 6.69315 13.0374 6.67149C13.5328 6.64185 15.0239 6.43873 15.4889 6.33758C15.5098 6.33299 15.6 6.60547 15.6892 6.94297ZM6.10761 12.482C6.19317 13.9114 6.32632 14.8573 6.61781 16.1075C6.70539 16.4831 6.76813 16.7983 6.75723 16.8079C6.74632 16.8175 6.46937 16.902 6.14183 16.9957C5.8143 17.0895 5.18028 17.3061 4.73295 17.4773L3.91966 17.7885L3.80808 17.6451C2.95027 16.5426 2.3298 15.2797 1.94397 13.851C1.85025 13.5037 1.69366 12.3977 1.69222 12.0728L1.69109 11.8053H3.8791H6.06711L6.10761 12.482ZM11.1568 14.0302V16.2552L10.3239 16.2971C9.59849 16.3336 8.2728 16.4967 7.66919 16.6235L7.47273 16.6648L7.27897 15.8558C6.99055 14.6514 6.76958 13.0263 6.76889 12.1043L6.7687 11.8053H8.96273H11.1568V14.0302ZM16.2337 12.2302C16.2321 13.2484 15.9958 14.8981 15.688 16.0407C15.5268 16.6393 15.5174 16.6559 15.361 16.6219C14.8369 16.5079 13.3937 16.3331 12.6792 16.2971L11.8463 16.2552V14.0302V11.8053H14.0403H16.2344L16.2337 12.2302ZM21.3029 12.3561C21.2071 13.5446 20.8484 14.8149 20.297 15.9194C20.0539 16.4062 19.5045 17.2736 19.226 17.6106L19.0839 17.7824L18.43 17.5278C18.0705 17.3878 17.4363 17.1715 17.021 17.0473C16.6056 16.923 16.2551 16.8128 16.2422 16.8023C16.2293 16.7917 16.2924 16.4774 16.3824 16.1038C16.6692 14.9135 16.8123 13.9156 16.8972 12.5134L16.94 11.8053H19.1437H21.3474L21.3029 12.3561ZM11.1568 19.1079V21.3121L10.9844 21.273C10.0916 21.0706 9.1617 20.2109 8.40858 18.8917C8.12969 18.4032 7.67452 17.3536 7.72329 17.3114C7.81456 17.2324 9.68431 17.0094 10.7806 16.9467C10.9703 16.9359 11.1325 16.9218 11.1411 16.9154C11.1497 16.9089 11.1568 17.8956 11.1568 19.1079ZM13.3194 17.0317C14.0194 17.0898 15.2325 17.2658 15.2864 17.3169C15.3355 17.3636 14.8937 18.3677 14.59 18.8996C13.8416 20.2106 12.9093 21.0711 12.0187 21.273L11.8463 21.3121L11.8462 19.1237L11.8461 16.9352L12.2067 16.9522C12.405 16.9616 12.9057 16.9974 13.3194 17.0317ZM7.23089 18.0524C7.67283 19.1427 8.26546 20.1024 8.92173 20.7905C9.06209 20.9376 9.15724 21.058 9.13323 21.058C9.10923 21.058 8.81422 20.9702 8.47766 20.863C7.69458 20.6135 6.75647 20.1596 6.07915 19.7027C5.53252 19.334 5.36571 19.1996 4.75483 18.6353L4.40216 18.3096L5.03755 18.0782C5.5539 17.8902 6.81628 17.4941 6.96014 17.4749C6.97926 17.4723 7.10113 17.7322 7.23089 18.0524ZM16.6732 17.6585C17.1414 17.7914 18.6165 18.2931 18.6165 18.3194C18.6165 18.3271 18.3555 18.5604 18.0366 18.838C16.9381 19.7943 15.776 20.4645 14.5254 20.863C14.1888 20.9702 13.8968 21.058 13.8766 21.058C13.8563 21.058 13.9873 20.8958 14.1677 20.6976C14.3481 20.4994 14.6349 20.1383 14.8049 19.8951C15.1162 19.4501 15.7788 18.1471 15.9194 17.7038C15.9747 17.5291 16.0227 17.4733 16.099 17.4952C16.1562 17.5116 16.4146 17.5851 16.6732 17.6585Z" fill="#34F3FF"/>
<path fill-rule="evenodd" clip-rule="evenodd" d="M10.6553 1.01568C8.12323 1.31063 6.26081 2.12744 4.39783 3.76012C3.33617 4.69049 2.25683 6.28546 1.68538 7.7684C0.539473 10.7418 0.844067 14.1702 2.49711 16.9037C3.92593 19.2665 6.27567 21.0281 8.87108 21.6822C10.8979 22.193 13.2376 22.0827 15.0747 21.39C17.6376 20.4235 19.5671 18.7286 20.8403 16.3255C22.3516 13.4729 22.3885 9.79675 20.9351 6.89425C19.3696 3.7678 16.6673 1.75545 13.1941 1.12941C12.6953 1.03953 11.0741 0.966895 10.6553 1.01568ZM11.1568 3.87921V6.08694L10.5769 6.04722C9.46247 5.97087 7.80848 5.75775 7.73156 5.68058C7.69458 5.64338 8.0156 4.88706 8.32226 4.28897C8.81234 3.33318 9.43802 2.56999 10.0829 2.14154C10.3104 1.99035 10.9982 1.67652 11.1097 1.67299C11.1356 1.67217 11.1568 2.66498 11.1568 3.87921ZM12.1687 1.76155C13.1405 2.0577 14.0847 3.06504 14.8256 4.59639C15.3093 5.59611 15.3356 5.67825 15.187 5.72496C15.0011 5.78343 13.1767 5.99995 12.4888 6.04527L11.8463 6.08757V3.87953C11.8463 2.6651 11.8534 1.6718 11.862 1.67217C11.8706 1.67255 12.0086 1.71277 12.1687 1.76155ZM8.83949 2.28518C8.21764 2.98567 7.54783 4.12626 7.14714 5.16722L7.00083 5.5472L6.30494 5.34547C5.54424 5.12492 4.57329 4.77772 4.49199 4.69716C4.41883 4.62471 5.35994 3.7848 6.00449 3.34728C6.6884 2.88301 7.61302 2.43215 8.46268 2.14859C8.82388 2.02805 9.12872 1.92804 9.14013 1.92634C9.15148 1.92464 9.0162 2.08609 8.83949 2.28518ZM15.1543 2.37103C15.822 2.63671 16.3836 2.93475 16.9986 3.34961C17.6394 3.7819 18.5848 4.62414 18.5111 4.69716C18.4296 4.77785 17.4581 5.12737 16.6958 5.35019L15.9976 5.55432L15.9286 5.32306C15.8253 4.97694 15.202 3.7279 14.8938 3.24959C14.7449 3.01846 14.4511 2.62866 14.2408 2.38337L13.8585 1.93735L14.2785 2.06349C14.5095 2.13285 14.9037 2.27127 15.1543 2.37103ZM4.55273 5.474C4.85782 5.59215 5.46012 5.79413 5.89109 5.92285C6.32206 6.05157 6.69742 6.17752 6.72532 6.20263C6.75315 6.22781 6.71961 6.47197 6.65072 6.7452C6.36738 7.86943 6.1928 9.07643 6.10761 10.4993L6.06711 11.1759H3.8791H1.69109L1.69146 10.9084C1.69284 9.89167 2.11002 8.3427 2.70341 7.15074C3.09339 6.36754 3.82124 5.25924 3.94574 5.25924C3.97445 5.25924 4.24757 5.35586 4.55273 5.474ZM19.3859 5.62116C20.4417 7.00893 21.1623 8.89005 21.3028 10.6251L21.3474 11.1759H19.1437H16.94L16.8972 10.4678C16.8151 9.11306 16.6304 7.85149 16.3521 6.7452C16.2834 6.47197 16.2499 6.22812 16.2777 6.20339C16.3056 6.17865 16.6764 6.05459 17.1016 5.92776C17.5268 5.80093 18.1192 5.60052 18.4181 5.48237C18.7168 5.36423 18.9948 5.26566 19.036 5.26339C19.077 5.26113 19.2345 5.42214 19.3859 5.62116ZM8.52392 6.51162C8.98937 6.58079 9.65228 6.65412 9.99706 6.67471C10.3418 6.69522 10.7438 6.72682 10.8903 6.74482L11.1568 6.77762V8.97672V11.1759H8.9542H6.75165L6.79609 10.4363C6.87207 9.17097 7.02684 8.14071 7.3115 7.00534C7.44672 6.46605 7.50125 6.33399 7.57949 6.35703C7.63346 6.37289 8.05847 6.44244 8.52392 6.51162ZM15.6892 6.94297C15.9922 8.08935 16.2322 9.76742 16.2337 10.751L16.2344 11.1759H14.0403H11.8463V8.97672V6.77762L12.1127 6.74419C12.2593 6.72588 12.6753 6.69315 13.0374 6.67149C13.5328 6.64185 15.0239 6.43873 15.4889 6.33758C15.5098 6.33299 15.6 6.60547 15.6892 6.94297ZM6.10761 12.482C6.19317 13.9114 6.32632 14.8573 6.61781 16.1075C6.70539 16.4831 6.76813 16.7983 6.75723 16.8079C6.74632 16.8175 6.46937 16.902 6.14183 16.9957C5.8143 17.0895 5.18028 17.3061 4.73295 17.4773L3.91966 17.7885L3.80808 17.6451C2.95027 16.5426 2.3298 15.2797 1.94397 13.851C1.85025 13.5037 1.69366 12.3977 1.69222 12.0728L1.69109 11.8053H3.8791H6.06711L6.10761 12.482ZM11.1568 14.0302V16.2552L10.3239 16.2971C9.59849 16.3336 8.2728 16.4967 7.66919 16.6235L7.47273 16.6648L7.27897 15.8558C6.99055 14.6514 6.76958 13.0263 6.76889 12.1043L6.7687 11.8053H8.96273H11.1568V14.0302ZM16.2337 12.2302C16.2321 13.2484 15.9958 14.8981 15.688 16.0407C15.5268 16.6393 15.5174 16.6559 15.361 16.6219C14.8369 16.5079 13.3937 16.3331 12.6792 16.2971L11.8463 16.2552V14.0302V11.8053H14.0403H16.2344L16.2337 12.2302ZM21.3029 12.3561C21.2071 13.5446 20.8484 14.8149 20.297 15.9194C20.0539 16.4062 19.5045 17.2736 19.226 17.6106L19.0839 17.7824L18.43 17.5278C18.0705 17.3878 17.4363 17.1715 17.021 17.0473C16.6056 16.923 16.2551 16.8128 16.2422 16.8023C16.2293 16.7917 16.2924 16.4774 16.3824 16.1038C16.6692 14.9135 16.8123 13.9156 16.8972 12.5134L16.94 11.8053H19.1437H21.3474L21.3029 12.3561ZM11.1568 19.1079V21.3121L10.9844 21.273C10.0916 21.0706 9.1617 20.2109 8.40858 18.8917C8.12969 18.4032 7.67452 17.3536 7.72329 17.3114C7.81456 17.2324 9.68431 17.0094 10.7806 16.9467C10.9703 16.9359 11.1325 16.9218 11.1411 16.9154C11.1497 16.9089 11.1568 17.8956 11.1568 19.1079ZM13.3194 17.0317C14.0194 17.0898 15.2325 17.2658 15.2864 17.3169C15.3355 17.3636 14.8937 18.3677 14.59 18.8996C13.8416 20.2106 12.9093 21.0711 12.0187 21.273L11.8463 21.3121L11.8462 19.1237L11.8461 16.9352L12.2067 16.9522C12.405 16.9616 12.9057 16.9974 13.3194 17.0317ZM7.23089 18.0524C7.67283 19.1427 8.26546 20.1024 8.92173 20.7905C9.06209 20.9376 9.15724 21.058 9.13323 21.058C9.10923 21.058 8.81422 20.9702 8.47766 20.863C7.69458 20.6135 6.75647 20.1596 6.07915 19.7027C5.53252 19.334 5.36571 19.1996 4.75483 18.6353L4.40216 18.3096L5.03755 18.0782C5.5539 17.8902 6.81628 17.4941 6.96014 17.4749C6.97926 17.4723 7.10113 17.7322 7.23089 18.0524ZM16.6732 17.6585C17.1414 17.7914 18.6165 18.2931 18.6165 18.3194C18.6165 18.3271 18.3555 18.5604 18.0366 18.838C16.9381 19.7943 15.776 20.4645 14.5254 20.863C14.1888 20.9702 13.8968 21.058 13.8766 21.058C13.8563 21.058 13.9873 20.8958 14.1677 20.6976C14.3481 20.4994 14.6349 20.1383 14.8049 19.8951C15.1162 19.4501 15.7788 18.1471 15.9194 17.7038C15.9747 17.5291 16.0227 17.4733 16.099 17.4952C16.1562 17.5116 16.4146 17.5851 16.6732 17.6585Z" stroke="#34F3FF" stroke-width="0.7" mask="url(#path-1-outside-1_1_347)"/>
</svg>
