<svg width="17" height="15" viewBox="0 0 17 15" fill="none" xmlns="http://www.w3.org/2000/svg">
<path fill-rule="evenodd" clip-rule="evenodd" d="M3.96451 0.122591C2.10829 0.3474 0.594149 1.66724 0.107282 3.48478C-0.0641945 4.12499 -0.0267207 5.15258 0.195601 5.90633C0.904026 8.30826 2.89325 10.7032 6.47678 13.4687C7.3188 14.1185 8.44195 14.9294 8.50001 14.9294C8.56376 14.9294 9.69489 14.1064 10.8458 13.2227C12.5088 11.9456 14.5256 9.9487 15.4024 8.71078C16.0246 7.83239 16.5411 6.79932 16.8044 5.90633C17.0267 5.15258 17.0642 4.12499 16.8927 3.48478C16.484 1.9591 15.3675 0.782094 13.8834 0.312521C13.2087 0.0990431 12.4433 0.0317164 11.9034 0.138345C11.3816 0.241435 10.7308 0.522627 10.2223 0.864677C9.84678 1.11724 8.93985 1.92593 8.65571 2.26151L8.50001 2.44536L8.3395 2.26151C7.37691 1.15875 6.13787 0.34132 5.12795 0.142656C4.67487 0.0535505 4.55189 0.0514501 3.96451 0.122591Z" fill="#FF3030"/>
</svg>
