<svg width="19" height="17" viewBox="0 0 19 17" fill="none" xmlns="http://www.w3.org/2000/svg">
<path d="M1.46714 4.81648L1.46714 4.81647C1.96599 2.96972 3.51999 1.62696 5.42057 1.39869C5.67627 1.36798 5.87458 1.34706 6.06691 1.35035C6.26892 1.3538 6.44269 1.38338 6.64908 1.42363L6.64911 1.42364C7.59841 1.60882 8.64927 2.26697 9.50481 3.12236C9.62056 3.01226 9.74606 2.89788 9.86772 2.79031C10.1422 2.54758 10.4535 2.28966 10.659 2.15263L11.0197 2.69338L10.659 2.15262C11.1685 1.8128 11.8217 1.52895 12.3781 1.41997L12.3781 1.41996C12.9869 1.30073 13.7747 1.37984 14.4446 1.59005C15.9679 2.068 17.1149 3.26918 17.5329 4.81646L17.5329 4.81648C17.721 5.51314 17.6745 6.53675 17.4504 7.29014C17.1946 8.1504 16.7035 9.11852 16.1193 9.93651L16.1193 9.93653C15.2963 11.0886 13.4644 12.8809 11.9636 14.0238L11.5698 13.5066L11.9636 14.0238C11.4521 14.4132 10.9442 14.79 10.5555 15.0704C10.3618 15.2102 10.1942 15.3286 10.0692 15.4133C10.0077 15.455 9.95028 15.4929 9.90262 15.522C9.87995 15.5359 9.84994 15.5537 9.81807 15.5701C9.80285 15.5779 9.77623 15.591 9.74332 15.6038C9.74292 15.604 9.74237 15.6042 9.74168 15.6045C9.72526 15.611 9.62728 15.65 9.5 15.65C9.36686 15.65 9.26408 15.6069 9.25212 15.6019C9.25164 15.6017 9.2513 15.6015 9.25112 15.6015C9.21949 15.5888 9.19393 15.5759 9.17965 15.5685C9.14949 15.5528 9.1209 15.5358 9.0993 15.5225C9.05378 15.4946 8.99879 15.4585 8.94031 15.419C8.82145 15.3388 8.66406 15.2284 8.48842 15.1027C8.13636 14.8506 7.69726 14.527 7.31975 14.2381C4.12643 11.7943 2.23461 9.59349 1.54955 7.29014L1.46714 4.81648ZM1.46714 4.81648C1.27897 5.51314 1.32547 6.53674 1.54955 7.29013L1.46714 4.81648Z" stroke="#C1C1C1" stroke-width="1.3"/>
</svg>
