<svg width="19" height="17" viewBox="0 0 19 17" fill="none" xmlns="http://www.w3.org/2000/svg">
<path d="M0.616434 4.32371L0.616431 4.32372C0.429739 5.0681 0.474044 6.19449 0.702949 7.0233C1.41379 9.59719 3.3902 12.0968 6.80499 14.9111C7.20759 15.2429 7.67632 15.615 8.05198 15.9046C8.23952 16.0492 8.40648 16.1753 8.53168 16.2663C8.59353 16.3112 8.64971 16.3509 8.69491 16.3808C8.71658 16.3951 8.74289 16.4119 8.76952 16.4268C8.78216 16.4339 8.80367 16.4456 8.82988 16.4569C8.83002 16.4569 8.83029 16.457 8.83067 16.4572C8.84031 16.4616 8.92525 16.5 9.03572 16.5C9.14133 16.5 9.22238 16.4652 9.23586 16.4594C9.23644 16.4592 9.23689 16.459 9.23722 16.4589C9.26454 16.4474 9.28695 16.4355 9.3004 16.4281C9.3285 16.4126 9.35607 16.395 9.37874 16.3801C9.42597 16.349 9.48455 16.3075 9.54956 16.26C9.68114 16.1639 9.85894 16.0287 10.0659 15.8679C10.4808 15.5455 11.0236 15.1119 11.5704 14.6635L11.2534 14.2769L11.5704 14.6635C13.1684 13.353 15.1135 11.3011 15.9778 9.99797L15.9778 9.99796C16.5912 9.07309 17.1037 7.98224 17.3685 7.02329C17.5974 6.19449 17.6417 5.0681 17.455 4.32372C17.0308 2.63265 15.8628 1.30198 14.2851 0.768899C13.5866 0.532881 12.77 0.446747 12.1501 0.577501L12.15 0.577507C11.578 0.698198 10.8997 1.01511 10.3722 1.39396L10.6639 1.80005L10.3722 1.39396C10.1643 1.54334 9.8396 1.83228 9.54622 2.11166C9.36905 2.28037 9.18794 2.46019 9.03749 2.62005C8.12084 1.59007 6.97062 0.796048 5.95064 0.581771L5.95062 0.581766C5.73122 0.535687 5.5565 0.504089 5.3547 0.500375C5.1609 0.496809 4.95857 0.519424 4.68381 0.554962C2.70719 0.810621 1.12217 2.30742 0.616434 4.32371Z" stroke="#C1C1C1"/>
</svg>
