<svg width="26" height="24" viewBox="0 0 26 24" fill="none" xmlns="http://www.w3.org/2000/svg">
<path fill-rule="evenodd" clip-rule="evenodd" d="M1.5 3C1.5 2.30965 2.05964 1.75 2.75 1.75L9.91832 1.75L16.6937 1.75C17.384 1.75 17.9437 2.30964 17.9437 3L17.9437 14.3803C17.9437 15.0706 17.384 15.6303 16.6937 15.6303H9.91832L2.75 15.6303C2.05964 15.6303 1.5 15.0706 1.5 14.3803L1.5 3ZM2.75 0.250001C1.23122 0.250001 -1.25993e-07 1.48122 0 3L6.76262e-07 14.3803C8.02255e-07 15.8991 1.23122 17.1303 2.75 17.1303L9.91832 17.1303H16.6937C18.2124 17.1303 19.4437 15.8991 19.4437 14.3803L19.4437 3C19.4437 1.48122 18.2124 0.25 16.6937 0.25L9.91832 0.25L2.75 0.250001Z" fill="#C0C0C0"/>
<path fill-rule="evenodd" clip-rule="evenodd" d="M7.52148 9.30273C7.52148 8.61238 8.08113 8.05273 8.77149 8.05273L15.9398 8.05273L22.7151 8.05273C23.4055 8.05273 23.9651 8.61238 23.9651 9.30273L23.9651 20.683C23.9651 21.3734 23.4055 21.933 22.7151 21.933H15.9398L8.77148 21.933C8.08113 21.933 7.52149 21.3734 7.52149 20.683L7.52148 9.30273ZM8.77149 6.55273C7.2527 6.55274 6.02148 7.78395 6.02148 9.30274L6.02149 20.683C6.02149 22.2018 7.2527 23.433 8.77148 23.433L15.9398 23.433H22.7151C24.2339 23.433 25.4651 22.2018 25.4651 20.683L25.4651 9.30273C25.4651 7.78395 24.2339 6.55273 22.7151 6.55273L15.9398 6.55273L8.77149 6.55273Z" fill="#C0C0C0"/>
</svg>
