<svg width="19" height="19" viewBox="0 0 19 19" fill="none" xmlns="http://www.w3.org/2000/svg">
<path d="M16.9 9.5C16.9 13.5869 13.5869 16.9 9.5 16.9C5.41309 16.9 2.1 13.5869 2.1 9.5C2.1 5.41309 5.41309 2.1 9.5 2.1C13.5869 2.1 16.9 5.41309 16.9 9.5ZM9.5 18.1C14.2496 18.1 18.1 14.2496 18.1 9.5C18.1 4.75035 14.2496 0.9 9.5 0.9C4.75035 0.9 0.9 4.75035 0.9 9.5C0.9 14.2496 4.75035 18.1 9.5 18.1Z" fill="#C0C0C0" stroke="#C0C0C0" stroke-width="0.2"/>
<path fill-rule="evenodd" clip-rule="evenodd" d="M5.5 9.35C5.5 8.99101 5.72386 8.7 6 8.7L13 8.7C13.2761 8.7 13.5 8.99101 13.5 9.35C13.5 9.70898 13.2761 10 13 10L6 10C5.72386 10 5.5 9.70899 5.5 9.35Z" fill="#C0C0C0"/>
</svg>
