<svg width="22" height="16" viewBox="0 0 22 16" fill="none" xmlns="http://www.w3.org/2000/svg">
<path fill-rule="evenodd" clip-rule="evenodd" d="M3 1.75C2.30964 1.75 1.75 2.30964 1.75 3L1.75 11.0385C1.75 11.7289 2.30964 12.2885 3 12.2885H4.28323C4.69744 12.2885 5.03323 12.6243 5.03323 13.0385C5.03323 13.4527 4.69744 13.7885 4.28323 13.7885H3C1.48122 13.7885 0.25 12.5573 0.25 11.0385V3C0.25 1.48122 1.48122 0.25 3 0.25H11.0654H18.6994C20.2182 0.25 21.4494 1.48122 21.4494 3L21.4494 11.0385C21.4494 12.5573 20.2182 13.7885 18.6994 13.7885H12.5352V15.0556C12.5352 15.4389 12.1301 15.6776 11.8078 15.4842L7.80546 13.0826C7.4861 12.891 7.48611 12.4171 7.80546 12.2255L11.8078 9.82389C12.1301 9.6305 12.5352 9.86917 12.5352 10.2524V12.2885H18.6994C19.3897 12.2885 19.9494 11.7289 19.9494 11.0385L19.9494 3C19.9494 2.30964 19.3897 1.75 18.6994 1.75L11.0654 1.75L3 1.75Z" fill="#C0C0C0"/>
</svg>
