<svg width="22" height="14" viewBox="0 0 22 14" fill="none" xmlns="http://www.w3.org/2000/svg">
<path fill-rule="evenodd" clip-rule="evenodd" d="M17.3633 4.84306C17.3633 5.19327 17.7334 5.41135 18.0279 5.23465L21.685 3.04024C21.9768 2.86514 21.9768 2.43216 21.685 2.25706L18.0279 0.0626529C17.7334 -0.114054 17.3633 0.104028 17.3633 0.454241V1.8703C16.4931 1.87244 15.6724 1.89281 14.8992 2.0814C13.9727 2.30737 13.1435 2.76327 12.2954 3.61138C11.5358 4.37097 11.0301 5.01181 10.5047 5.71124C10.1225 5.22472 9.672 4.67357 9.11193 4.02976C8.06435 2.82556 7.09132 2.16374 6.09711 1.82353C5.12874 1.49217 4.20325 1.49218 3.35665 1.4922H0.777778C0.348223 1.4922 0 1.84042 0 2.26998C0 2.69953 0.348223 3.04775 0.777778 3.04775H3.34077C4.21798 3.04775 4.89823 3.0574 5.59348 3.29531C6.26895 3.52644 7.02403 3.99976 7.93831 5.05073C8.60769 5.82018 9.11282 6.44979 9.5359 6.99945C9.11282 7.5491 8.60769 8.17871 7.93831 8.94816C7.02403 9.99914 6.26895 10.4725 5.59348 10.7036C4.89823 10.9415 4.21798 10.9511 3.34077 10.9511H0.777778C0.348223 10.9511 0 11.2994 0 11.7289C0 12.1585 0.348223 12.5067 0.777778 12.5067H3.35665C4.20325 12.5067 5.12874 12.5067 6.09711 12.1754C7.09132 11.8352 8.06435 11.1733 9.11193 9.96913C9.672 9.32533 10.1225 8.77418 10.5047 8.28766C11.0301 8.98709 11.5358 9.62792 12.2954 10.3875C13.1435 11.2356 13.9727 11.6915 14.8992 11.9175C15.6724 12.1061 16.4931 12.1265 17.3633 12.1286V13.5422C17.3633 13.8924 17.7334 14.1105 18.0279 13.9338L21.685 11.7394C21.9768 11.5643 21.9768 11.1313 21.685 10.9562L18.0279 8.76181C17.7334 8.5851 17.3633 8.80318 17.3633 9.15339V10.5728C16.4974 10.5698 15.8526 10.5489 15.2678 10.4062C14.6429 10.2538 14.0608 9.95298 13.3954 9.28757C12.6311 8.52332 12.1545 7.89851 11.5684 7.11278L11.484 6.99945L11.5684 6.88611C12.1545 6.10039 12.6311 5.47557 13.3954 4.71132C14.0608 4.04592 14.6429 3.74506 15.2678 3.59265C15.8526 3.45002 16.4974 3.42909 17.3633 3.4261V4.84306Z" fill="#C1C1C1"/>
</svg>
