<svg width="16" height="15" viewBox="0 0 16 15" fill="none" xmlns="http://www.w3.org/2000/svg">
<path d="M15 8.20898V11.8044C15 12.909 14.1046 13.8044 13 13.8044H3C1.89543 13.8044 1 12.909 1 11.8044V8.20898" stroke="#C0C0C0" stroke-width="1.2" stroke-linecap="round"/>
<path d="M7.4 9.32769C7.4 9.65907 7.66863 9.92769 8 9.92769C8.33137 9.92769 8.6 9.65907 8.6 9.32769L7.4 9.32769ZM8.42426 0.69683C8.18995 0.462515 7.81005 0.462515 7.57574 0.69683L3.75736 4.51521C3.52304 4.74952 3.52304 5.12942 3.75736 5.36373C3.99167 5.59805 4.37157 5.59805 4.60589 5.36373L8 1.96962L11.3941 5.36373C11.6284 5.59805 12.0083 5.59805 12.2426 5.36373C12.477 5.12942 12.477 4.74952 12.2426 4.51521L8.42426 0.69683ZM8.6 9.32769L8.6 1.12109L7.4 1.12109L7.4 9.32769L8.6 9.32769Z" fill="#C0C0C0"/>
</svg>
