<svg width="19" height="18" viewBox="0 0 19 18" fill="none" xmlns="http://www.w3.org/2000/svg">
<path d="M0.622067 4.55433L0.622064 4.55434C0.4264 5.34105 0.472601 6.53587 0.713361 7.41492C1.46236 10.1497 3.54639 12.8106 7.15719 15.8115C7.58278 16.1652 8.07834 16.5618 8.47548 16.8706C8.67375 17.0248 8.85012 17.1591 8.98223 17.2559C9.04754 17.3037 9.10655 17.3458 9.15383 17.3773C9.17653 17.3924 9.2037 17.4099 9.231 17.4253C9.24397 17.4326 9.2658 17.4445 9.29231 17.4561C9.29246 17.4561 9.29273 17.4563 9.29312 17.4564C9.30292 17.4609 9.38859 17.5 9.50001 17.5C9.60658 17.5 9.68835 17.4646 9.70201 17.4587C9.70259 17.4584 9.70305 17.4582 9.70339 17.4581C9.73103 17.4464 9.75379 17.4343 9.76758 17.4266C9.79637 17.4105 9.82483 17.3923 9.84857 17.3765C9.89795 17.3437 9.95948 17.2998 10.0281 17.2492C10.167 17.1469 10.3548 17.0029 10.5736 16.8315C11.0122 16.4878 11.5862 16.0255 12.1644 15.5473L11.8458 15.162L12.1644 15.5473C13.8533 14.1507 15.9082 11.9642 16.8202 10.5778L16.8202 10.5778C17.4673 9.59379 18.0077 8.4336 18.2867 7.41491C18.5274 6.53587 18.5736 5.34105 18.378 4.55434L17.8927 4.67502L18.378 4.55432C17.9321 2.76206 16.7044 1.35101 15.0447 0.785457C14.309 0.534773 13.4497 0.443785 12.7994 0.582102L12.7994 0.582108C12.1983 0.709999 11.4842 1.0463 10.929 1.44843L11.2223 1.85337L10.929 1.44843C10.7108 1.60647 10.3687 1.91341 10.0584 2.21133C9.86298 2.39901 9.66354 2.59907 9.50134 2.77408C8.53142 1.66782 7.31053 0.815232 6.23158 0.586661L6.23155 0.586655C5.99976 0.537563 5.81686 0.504287 5.60587 0.500372C5.40293 0.496606 5.19061 0.52047 4.89984 0.558396C2.81964 0.829712 1.15354 2.41762 0.622067 4.55433Z" stroke="#C1C1C1"/>
</svg>
