<svg width="20" height="19" viewBox="0 0 20 19" fill="none" xmlns="http://www.w3.org/2000/svg">
<path d="M19 10.5V15C19 16.6569 17.6569 18 16 18H4C2.34315 18 1 16.6569 1 15V10.5" stroke="#C0C0C0" stroke-width="1.5" stroke-linecap="round"/>
<path d="M9.25 12C9.25 12.4142 9.58579 12.75 10 12.75C10.4142 12.75 10.75 12.4142 10.75 12L9.25 12ZM10.5303 0.46967C10.2374 0.176777 9.76256 0.176777 9.46967 0.46967L4.6967 5.24264C4.40381 5.53553 4.40381 6.01041 4.6967 6.3033C4.98959 6.59619 5.46447 6.59619 5.75736 6.3033L10 2.06066L14.2426 6.3033C14.5355 6.59619 15.0104 6.59619 15.3033 6.3033C15.5962 6.01041 15.5962 5.53553 15.3033 5.24264L10.5303 0.46967ZM10.75 12L10.75 1L9.25 1L9.25 12L10.75 12Z" fill="#C0C0C0"/>
</svg>
