<svg width="17" height="16" viewBox="0 0 17 16" fill="none" xmlns="http://www.w3.org/2000/svg">
<path fill-rule="evenodd" clip-rule="evenodd" d="M3.96451 0.0541964C2.10829 0.296299 0.594149 1.71766 0.107282 3.67502C-0.0641945 4.36448 -0.0267207 5.47111 0.195601 6.28284C0.904026 8.86953 2.89325 11.4487 6.47678 14.4269C7.3188 15.1268 8.44195 16 8.50001 16C8.56376 16 9.69489 15.1137 10.8458 14.162C12.5088 12.7867 14.5256 10.6362 15.4024 9.30302C16.0246 8.35705 16.5411 7.24452 16.8044 6.28284C17.0267 5.47111 17.0642 4.36448 16.8927 3.67502C16.484 2.03197 15.3675 0.764431 13.8834 0.258736C13.2087 0.0288373 12.4433 -0.0436684 11.9034 0.071162C11.3816 0.182183 10.7308 0.485004 10.2223 0.853366C9.84678 1.12535 8.93985 1.99625 8.65571 2.35765L8.50001 2.55564L8.3395 2.35765C7.37691 1.17006 6.13787 0.289751 5.12795 0.0758052C4.67487 -0.0201547 4.55189 -0.0224168 3.96451 0.0541964Z" fill="#FF3030"/>
</svg>
