<svg width="28" height="18" viewBox="0 0 28 18" fill="none" xmlns="http://www.w3.org/2000/svg">
<path fill-rule="evenodd" clip-rule="evenodd" d="M4.7972 0.116069C4.66738 0.221485 4.65474 0.287541 4.66064 0.833331C4.66654 1.38951 4.65513 1.44641 4.50774 1.59411L4.34849 1.7537H2.39899C0.843306 1.7537 0.404121 1.77273 0.224778 1.84781L0 1.94193V4.44218V6.94249L0.144084 7.04356C0.270926 7.13267 0.806102 7.14469 4.63996 7.14469C9.83241 7.14469 9.33333 7.04856 9.33333 8.04869C9.33333 8.61136 9.34882 8.69742 9.4697 8.80713C9.60031 8.9256 9.79566 8.93222 14.0444 8.96334C18.3433 8.99477 18.4856 8.99977 18.5747 9.12188C18.6479 9.22223 18.6667 9.5568 18.6667 10.7594C18.6667 12.2306 18.6629 12.2743 18.5248 12.4032C18.3884 12.5307 18.3062 12.5357 16.3622 12.5357C13.859 12.5357 14.0135 12.596 13.986 11.6072L13.9676 10.9444L13.7407 10.8308C13.5398 10.7302 13.29 10.7172 11.5532 10.7172C9.17032 10.717 9.33333 10.7832 9.33333 9.81518C9.33333 9.20444 9.32556 9.168 9.17356 9.06823C9.03052 8.97431 8.55802 8.96334 4.65098 8.96334C0.807139 8.96334 0.270991 8.97535 0.144084 9.06447C0.0018801 9.16423 0 9.18625 0 10.7515V12.3375L0.191204 12.4366C0.350389 12.5191 0.714713 12.5357 2.36548 12.5357H4.34849L4.50061 12.6881C4.63718 12.825 4.65357 12.903 4.66096 13.4507C4.67418 14.4368 3.45437 14.3189 13.856 14.3399C18.7655 14.3498 22.8488 14.3417 22.9299 14.322C23.2649 14.2404 23.3333 14.0808 23.3333 13.3817V12.7338L23.5245 12.6348C23.6837 12.5523 24.048 12.5357 25.6988 12.5357H27.6818L27.8409 12.3762L28 12.2168V9.85032C28 7.61728 27.993 7.47516 27.8761 7.33051L27.7523 7.17716L23.3458 7.14469C19.1285 7.11358 18.9336 7.10689 18.803 6.98848C18.6823 6.87891 18.6667 6.79265 18.6667 6.23536C18.6667 5.71192 18.647 5.58819 18.5501 5.50024C18.4452 5.40515 17.9902 5.39268 14.0198 5.37651C9.78419 5.35923 9.60063 5.35351 9.4697 5.23478C9.33839 5.11566 9.33333 5.05402 9.33333 3.57234C9.33333 2.09093 9.33839 2.02903 9.46964 1.9099C9.59603 1.7952 9.74406 1.78474 11.4951 1.76643C12.5341 1.75551 13.4781 1.76402 13.5928 1.7852C13.9516 1.85151 14 1.95297 14 2.63827C14 3.22044 14.0093 3.26239 14.1715 3.41308L14.343 3.57234H16.3608C18.0821 3.57234 18.3997 3.58722 18.5226 3.67347C18.6547 3.76623 18.6667 3.82702 18.6667 4.40905C18.6667 5.00719 18.6763 5.05259 18.834 5.20107L19.0012 5.35852H23.3642C27.5637 5.35852 27.7323 5.3539 27.8636 5.23478C27.9951 5.11547 28 5.0548 28 3.53207C28 1.96265 27.9991 1.95264 27.8542 1.86964C27.7464 1.80793 27.1864 1.78085 25.7065 1.76565C24.0324 1.7485 23.6795 1.72862 23.5514 1.64451C23.4066 1.54949 23.3981 1.50668 23.3981 0.873081C23.3981 0.253442 23.3871 0.194465 23.2541 0.10113C23.1254 0.0107819 22.1428 0 14.0251 0C5.39739 0 4.93312 0.00584581 4.7972 0.116069ZM5.17572 15.2719C5.04577 15.3084 4.87077 15.4115 4.78683 15.501C4.65707 15.6395 4.63426 15.7308 4.63426 16.1118C4.63426 16.5133 4.65267 16.5781 4.81159 16.7375C4.98568 16.9119 5.00753 16.9159 5.99129 16.9523C6.54254 16.9726 7.01322 17.009 7.0372 17.033C7.06119 17.057 7.06358 17.1218 7.04245 17.1769C6.98743 17.3207 5.7588 17.3231 5.61575 17.1797C5.54763 17.1115 5.38119 17.0823 5.06016 17.0823H4.60185V17.2834C4.60185 17.5864 4.78949 17.8537 5.05387 17.9273C5.17961 17.9623 5.77824 17.991 6.38426 17.9912C7.86606 17.9915 8.09861 17.8746 8.10088 17.1278C8.10205 16.746 7.95906 16.4511 7.72606 16.3548C7.62974 16.315 7.12315 16.2651 6.60029 16.2439C5.65153 16.2055 5.48631 16.17 5.62236 16.0337C5.71375 15.9421 6.82163 15.9474 6.99475 16.0403C7.06423 16.0776 7.3126 16.108 7.54665 16.108C7.95958 16.108 7.97222 16.1031 7.97222 15.9424C7.97222 15.6977 7.8122 15.431 7.6044 15.3293C7.37677 15.2179 5.52378 15.1741 5.17572 15.2719ZM8.78494 15.3119C8.29571 15.4855 8.19907 15.6972 8.19907 16.5952C8.19907 17.382 8.26324 17.5909 8.5763 17.8234C8.74307 17.9473 8.86232 17.961 9.93741 17.9802C11.2207 18.0031 11.4861 17.9611 11.7354 17.6952C11.8873 17.5331 11.8935 17.491 11.8935 16.6292C11.8935 15.642 11.8688 15.5717 11.4399 15.3401C11.1367 15.1763 9.22444 15.156 8.78494 15.3119ZM12.0556 16.2415C12.0556 17.9083 12.0955 17.9504 13.7083 17.9781C14.9596 17.9997 15.1523 17.9491 15.3913 17.537C15.509 17.3341 15.5231 17.1976 15.5231 16.2704V15.2312L15.0532 15.2121L14.5833 15.193V16.0922C14.5833 16.7049 14.5586 17.0162 14.5056 17.0693C14.4551 17.1198 14.1933 17.1472 13.7614 17.1472C12.9713 17.1472 13.0346 17.2406 13.0112 16.0431L12.9954 15.2312L12.5255 15.2121L12.0556 15.193V16.2415ZM15.7284 15.242C15.7046 15.2658 15.6852 15.8942 15.6852 16.6385V17.9916H16.1713H16.6574V17.1743C16.6574 16.5609 16.6771 16.3636 16.7364 16.3834C16.7797 16.3978 17.0934 16.7583 17.4334 17.1845L18.0516 17.9591L18.7481 17.9776L19.4444 17.996V16.5945V15.193L18.9745 15.2121L18.5046 15.2312L18.4722 16.0755L18.4398 16.9199L17.7593 16.0611L17.0787 15.2023L16.4252 15.2005C16.0657 15.1995 15.7521 15.2182 15.7284 15.242ZM19.6389 16.595V18L21.2106 17.9795C22.5958 17.9615 22.8028 17.9452 22.9541 17.8423C23.2261 17.6572 23.3009 17.3882 23.3009 16.5952C23.3009 15.7523 23.2271 15.5514 22.8472 15.3611C22.6151 15.2448 22.4334 15.229 21.1134 15.2105L19.6389 15.1899V16.595ZM10.8519 16.1451C10.9667 16.2603 10.9938 16.9181 10.8904 17.0823C10.8 17.2259 9.48409 17.2607 9.30093 17.1243C9.11445 16.9855 9.11173 16.2711 9.2971 16.1352C9.48461 15.9979 10.7127 16.0057 10.8519 16.1451ZM22.2593 16.1451C22.3828 16.269 22.4006 16.9518 22.2833 17.0693C22.2313 17.1215 21.942 17.1472 21.4083 17.1472H20.6111V16.5952V16.0431H21.3843C22.0007 16.0431 22.1781 16.0638 22.2593 16.1451Z" fill="white"/>
</svg>
