<svg width="17" height="12" viewBox="0 0 17 12" fill="none" xmlns="http://www.w3.org/2000/svg">
<path fill-rule="evenodd" clip-rule="evenodd" d="M13.6762 0.248975C13.6211 0.383594 13.848 0.78502 14.2025 1.18045C15.5746 2.71034 16.2927 5.01036 15.9872 6.89713C15.7076 8.62303 15.4229 9.25223 14.2706 10.6899C13.7312 11.3632 13.6125 11.6172 13.7595 11.7834C13.8651 11.9025 14.0489 12 14.1683 12C14.4361 12 15.6411 10.5399 16.1361 9.61558C16.9345 8.12506 17.2146 5.92936 16.8281 4.19163C16.3174 1.8955 14.1249 -0.847089 13.6762 0.248975ZM5.70181 2.31928L3.62842 3.8192L1.81421 3.9002L0 3.9812V6.00615V8.0311L1.9006 8.1121L3.80121 8.19309L5.74933 9.62174C6.875 10.4473 7.82323 11.0275 7.99549 10.9964C8.27004 10.9469 8.29354 10.5475 8.29354 5.92515C8.29354 1.59289 8.25812 0.901657 8.03437 0.863588C7.89182 0.839289 6.84217 1.4944 5.70181 2.31928ZM12.0516 2.07467C11.795 2.15858 11.7628 2.705 12.0063 2.84609C12.369 3.0562 13.0504 4.36821 13.2121 5.16798C13.4521 6.35444 13.18 7.51579 12.4184 8.55532C11.783 9.42248 11.7381 9.96614 12.3102 9.86392C12.7233 9.79005 13.7991 8.24607 14.0498 7.36692C14.5013 5.78454 14.0912 3.88481 13.0271 2.62902C12.5645 2.08309 12.3676 1.97132 12.0516 2.07467ZM7.51602 5.92515C7.51602 8.28138 7.45399 9.57006 7.34082 9.57006C7.24441 9.57006 6.46793 9.05977 5.61542 8.43609L4.06539 7.30212H2.42137H0.77752V6.00615V4.71018L2.37575 4.70597L3.97399 4.7016L5.61542 3.49845C6.51821 2.8367 7.31525 2.29191 7.38644 2.28769C7.45762 2.28365 7.51602 3.92045 7.51602 5.92515ZM10.1055 4.30778C9.93739 4.49764 9.94569 4.62157 10.1452 4.91187C10.6067 5.58285 10.6337 6.05102 10.2538 6.78697C9.99907 7.28025 9.94586 7.53912 10.0744 7.65964C10.5293 8.08618 11.4883 6.98963 11.4893 6.04146C11.4907 4.88514 10.5915 3.75862 10.1055 4.30778Z" fill="#C0C0C0"/>
</svg>
