<svg width="17" height="14" viewBox="0 0 17 14" fill="none" xmlns="http://www.w3.org/2000/svg">
<path d="M4.42381 4.80435H1.40859C1.07722 4.80435 0.808594 5.07298 0.808594 5.40435V8.55217C0.808594 8.88354 1.07722 9.15217 1.40859 9.15217H4.40247C4.53872 9.15217 4.6709 9.19854 4.77729 9.28365L9.07291 12.7201C9.46576 13.0344 10.0477 12.7547 10.0477 12.2516V2.15239C10.0477 1.66698 9.50131 1.38249 9.10365 1.66085L4.76789 4.69589C4.66704 4.76648 4.54691 4.80435 4.42381 4.80435Z" stroke="#C0C0C0" stroke-width="1.2"/>
<path d="M12.7651 5.34766C13.6855 6.58989 13.8696 8.2048 12.7651 9.69548" stroke="#C0C0C0" stroke-linecap="round"/>
<path d="M14.6128 4.26172C15.9276 6.12507 16.1906 8.54743 14.6128 10.7835" stroke="#C0C0C0" stroke-linecap="round"/>
</svg>
