<svg width="55" height="12" viewBox="0 0 55 12" fill="none" xmlns="http://www.w3.org/2000/svg">
<path fill-rule="evenodd" clip-rule="evenodd" d="M0.811103 1.18218V2.36426L5.68725 2.3878L10.5634 2.41134L6.26035 3.9009C3.8937 4.72007 1.78875 5.48471 1.58281 5.59996C0.724083 6.08066 0.105237 7.09333 0.0144588 8.16636C-0.116298 9.71163 0.647244 11.0744 2.00314 11.716L2.50746 11.9546H11.6311H20.7547L21.4425 11.7418C22.4081 11.443 23.092 11.0602 23.7855 10.4305C25.1256 9.21338 25.7494 7.80635 25.7494 6.00141C25.7494 4.71835 25.4535 3.66887 24.8359 2.7619L24.5663 2.3659H29.5238C34.9574 2.3659 34.8997 2.36045 35.2236 2.90396C35.5271 3.41311 35.3563 4.06232 34.8202 4.43859C34.6226 4.57729 34.1641 4.59528 30.2222 4.61873C27.8141 4.633 25.8445 4.6739 25.8454 4.70962C25.8462 4.74525 28.5179 6.39986 31.7826 8.38658L37.7183 11.9987L38.9395 11.9994L40.1607 12L40.0949 7.74682C40.0587 5.40764 40.0569 3.34676 40.0909 3.16717C40.1809 2.69164 40.5466 2.3659 40.9905 2.3659C41.1878 2.3659 41.4664 2.42589 41.6096 2.49923C41.7527 2.57258 44.7731 4.71135 48.3216 7.25203C51.8702 9.79261 54.8252 11.9028 54.8882 11.941C54.978 11.9957 55.0021 11.7005 54.9998 10.5739L54.9969 9.13704L49.2184 5.00164C46.0402 2.72718 43.2246 0.733101 42.9614 0.570321C42.0187 -0.0126326 40.7233 -0.117062 39.6003 0.299476C38.6305 0.659119 37.7673 1.77622 37.7628 2.67746C37.7619 2.83106 37.7213 3.01802 37.6725 3.093C37.603 3.19952 37.5832 3.17534 37.5821 2.98284C37.5769 2.05833 36.4912 0.69102 35.4259 0.26721L34.8758 0.0482619L17.8434 0.0241767L0.811103 0V1.18218ZM21.3035 2.71545C22.7689 3.3952 23.644 5.03164 23.3646 6.56946C23.1065 7.98931 22.1537 9.05397 20.7676 9.47132C19.0885 9.97684 17.2672 9.16821 16.4697 7.56304C16.1888 6.99781 16.17 6.90011 16.17 6.00359C16.17 5.12189 16.1922 5.00092 16.454 4.45632C16.9139 3.49963 17.7795 2.76481 18.7768 2.48433C19.4857 2.28501 20.5941 2.38635 21.3035 2.71545ZM14.1596 3.75194C14.0429 4.01433 13.9007 4.44587 13.8437 4.71071C13.6963 5.39555 13.7155 6.77768 13.8812 7.41381C14.038 8.01621 14.4592 8.96108 14.7529 9.37007L14.9446 9.63692L9.0928 9.63374C4.50971 9.63119 3.19508 9.6052 3.0292 9.51395C2.47014 9.20647 2.27345 8.31214 2.66792 7.87151C2.82151 7.70001 4.31577 7.08534 8.51347 5.46708C11.6151 4.27136 14.202 3.28896 14.2623 3.28396C14.3326 3.27805 14.2958 3.44583 14.1596 3.75194ZM37.6519 7.89433L37.6266 9.2531L35.5354 8.05893L33.4442 6.86484L34.2998 6.80304C34.8077 6.76641 35.3692 6.66198 35.6815 6.54619C36.6086 6.20236 37.4161 5.21905 37.5667 4.25028C37.6389 3.78647 37.6888 5.91997 37.6519 7.89433Z" fill="white"/>
</svg>
