<svg width="103" height="103" viewBox="0 0 103 103" fill="none" xmlns="http://www.w3.org/2000/svg">
<circle cx="51.5" cy="51.5" r="51.5" fill="url(#paint0_linear_449_12522)"/>
<g opacity="0.85">
<path fill-rule="evenodd" clip-rule="evenodd" d="M51.3088 82.9966C65.4268 82.9966 76.8716 71.5518 76.8716 57.4338C76.8716 43.3159 65.4268 31.8711 51.3088 31.8711C37.1909 31.8711 25.7461 43.3159 25.7461 57.4338C25.7461 71.5518 37.1909 82.9966 51.3088 82.9966ZM60.4947 44.171C52.7211 51.0407 42.3074 51.5116 31.4909 50.0219C30.6702 49.9089 30.0966 49.152 30.2096 48.3313C30.3226 47.5106 31.0796 46.937 31.9002 47.05C42.7001 48.5374 52.0796 47.8601 58.8537 41.6109C59.908 40.6384 61.671 40.6796 62.5963 41.9586L62.5963 41.9586L62.6039 41.969L62.6039 41.9691C63.5841 43.324 64.6829 44.8266 66.0517 45.894C67.3672 46.9197 68.8325 47.468 70.6336 47.0711C71.4426 46.8928 72.243 47.4042 72.4212 48.2132C72.5995 49.0222 72.0882 49.8225 71.2792 50.0008C68.377 50.6403 66.0192 49.6729 64.207 48.2597C62.6396 47.0376 61.4101 45.4279 60.4947 44.171ZM57.7355 72.2164C59.0702 71.2825 59.8792 69.9834 59.8792 68.2796C59.8792 67.4512 60.5508 66.7796 61.3792 66.7796C62.2077 66.7796 62.8792 67.4512 62.8792 68.2796C62.8792 71.1124 61.4612 73.271 59.4554 74.6744C57.489 76.0503 54.9518 76.7196 52.4896 76.7502C50.0287 76.7807 47.4767 76.1749 45.4935 74.8036C43.4604 73.3979 42.0628 71.2003 42.0628 68.2796C42.0628 67.4512 42.7344 66.7796 43.5628 66.7796C44.3912 66.7796 45.0628 67.4512 45.0628 68.2796C45.0628 70.1167 45.8923 71.4321 47.1997 72.336C48.5571 73.2745 50.4592 73.7752 52.4524 73.7504C54.4443 73.7257 56.3612 73.178 57.7355 72.2164ZM43.9502 61.3094C45.0198 61.3094 45.8868 60.4424 45.8868 59.3728C45.8868 58.3033 45.0198 57.4363 43.9502 57.4363C42.8807 57.4363 42.0137 58.3033 42.0137 59.3728C42.0137 60.4424 42.8807 61.3094 43.9502 61.3094ZM62.1539 59.3728C62.1539 60.4424 61.2869 61.3094 60.2174 61.3094C59.1478 61.3094 58.2808 60.4424 58.2808 59.3728C58.2808 58.3033 59.1478 57.4363 60.2174 57.4363C61.2869 57.4363 62.1539 58.3033 62.1539 59.3728Z" fill="white"/>
<path fill-rule="evenodd" clip-rule="evenodd" d="M32.5692 27.5166C27.497 31.3511 24.1475 36.9752 24.1475 44.399H21.1475C21.1475 35.9462 25.0116 29.4692 30.76 25.1235C36.4699 20.8069 44.0097 18.6038 51.4823 18.5036C58.9539 18.4034 66.51 20.404 72.2379 24.6829C78.0118 28.9963 81.8573 35.5816 81.8573 44.3989H78.8573C78.8573 36.5656 75.4891 30.8564 70.4424 27.0863C65.3497 23.2818 58.4783 21.41 51.5225 21.5033C44.5676 21.5966 37.6799 23.6529 32.5692 27.5166Z" fill="white"/>
<path fill-rule="evenodd" clip-rule="evenodd" d="M25.0702 66.3437V48.5273C25.0702 47.4033 24.159 46.4922 23.0351 46.4922C21.9111 46.4922 21 47.4033 21 48.5273V66.3437C21 67.4677 21.9111 68.3788 23.0351 68.3788C24.159 68.3788 25.0702 67.4677 25.0702 66.3437ZM23.0351 43.4922C20.2543 43.4922 18 45.7465 18 48.5273V66.3437C18 69.1245 20.2543 71.3788 23.0351 71.3788C25.8159 71.3788 28.0702 69.1245 28.0702 66.3437V48.5273C28.0702 45.7465 25.8159 43.4922 23.0351 43.4922Z" fill="white"/>
<path fill-rule="evenodd" clip-rule="evenodd" d="M82.3924 66.3437V48.5273C82.3924 47.4033 81.4813 46.4922 80.3574 46.4922C79.2334 46.4922 78.3223 47.4033 78.3223 48.5273V66.3437C78.3223 67.4677 79.2334 68.3788 80.3574 68.3788C81.4813 68.3788 82.3924 67.4677 82.3924 66.3437ZM80.3574 43.4922C77.5766 43.4922 75.3223 45.7465 75.3223 48.5273V66.3437C75.3223 69.1245 77.5766 71.3788 80.3574 71.3788C83.1382 71.3788 85.3924 69.1245 85.3924 66.3437V48.5273C85.3924 45.7465 83.1382 43.4922 80.3574 43.4922Z" fill="white"/>
</g>
<defs>
<linearGradient id="paint0_linear_449_12522" x1="88.5" y1="-25" x2="19" y2="111.5" gradientUnits="userSpaceOnUse">
<stop stop-color="#FFED4E"/>
<stop offset="0.916667" stop-color="#F1670F"/>
</linearGradient>
</defs>
</svg>
