<svg width="79" height="21" viewBox="0 0 79 21" fill="none" xmlns="http://www.w3.org/2000/svg">
<path d="M33.2906 5.69491C31.9371 5.11936 30.6613 4.83936 29.4167 4.83936C26.3829 4.83936 23.5047 6.87713 23.5047 10.5638C23.5047 13.5971 25.4494 15.8838 29.0589 15.8838C30.7391 15.8838 32.3572 15.526 33.7107 14.8571L33.8663 12.446H32.8395C32.6528 14.2194 31.2992 15.3238 29.6034 15.3238C27.3319 15.3238 25.9162 13.3482 25.9162 10.3927C25.9162 9.07047 26.1495 7.93491 26.6007 7.0638C27.1452 6.00602 28.0165 5.39936 29.3234 5.39936C30.8947 5.39936 32.186 6.41047 32.7306 8.09047H33.664L33.2906 5.69491Z" fill="white"/>
<path d="M41.8825 10.3462C41.8825 9.22616 41.3069 8.47949 39.0977 8.47949C36.9818 8.47949 35.7527 9.2106 35.7527 10.2839C35.7527 10.595 35.8149 10.8284 36.0016 11.2639L37.6508 10.6884C37.5263 10.3928 37.4796 10.2373 37.4796 10.035C37.4796 9.42838 38.0086 9.03949 38.7709 9.03949C39.7822 9.03949 40.1556 9.59949 40.1556 10.2373V11.4973C39.4866 11.6684 38.8798 11.7928 38.2108 11.9795C37.0596 12.3062 35.5349 12.8195 35.5349 14.1573C35.5349 15.1684 36.3283 15.8528 37.5107 15.8528C38.3042 15.8528 39.0977 15.5728 40.2178 14.935C40.4201 15.6039 40.7779 15.8528 41.3691 15.8528C42.0692 15.8528 42.6604 15.495 43.2672 14.8417L43.0961 14.235C42.7693 14.4528 42.5671 14.5306 42.3804 14.5306C42.0381 14.5306 41.8825 14.235 41.8825 13.7528V10.3462ZM38.4598 14.935C37.8841 14.935 37.3707 14.4373 37.3707 13.8773C37.3707 13.2084 37.993 12.7884 38.7709 12.4617C39.2221 12.275 39.72 12.1039 40.1556 11.9484V14.2817C39.5333 14.7173 38.9576 14.935 38.4598 14.935Z" fill="white"/>
<path d="M45.986 6.93945C45.5349 7.79501 44.8192 8.52612 43.6835 8.66612V9.42834H44.8503V13.8617C44.8503 15.1217 45.4571 15.8528 46.5306 15.8528C47.2618 15.8528 47.9463 15.6972 49.0043 15.1372V14.4683C48.382 14.6706 48.0397 14.7483 47.6663 14.7483C46.9662 14.7483 46.5772 14.375 46.5772 13.3639V9.42834H48.9109V8.66612H46.5772V6.93945H45.986Z" fill="white"/>
<path d="M56.301 10.3462C56.301 9.22616 55.7253 8.47949 53.5161 8.47949C51.4002 8.47949 50.1711 9.2106 50.1711 10.2839C50.1711 10.595 50.2334 10.8284 50.4201 11.2639L52.0692 10.6884C51.9447 10.3928 51.8981 10.2373 51.8981 10.035C51.8981 9.42838 52.427 9.03949 53.1894 9.03949C54.2007 9.03949 54.574 9.59949 54.574 10.2373V11.4973C53.9051 11.6684 53.2983 11.7928 52.6293 11.9795C51.478 12.3062 49.9533 12.8195 49.9533 14.1573C49.9533 15.1684 50.7468 15.8528 51.9292 15.8528C52.7226 15.8528 53.5161 15.5728 54.6363 14.935C54.8385 15.6039 55.1964 15.8528 55.7876 15.8528C56.4877 15.8528 57.0789 15.495 57.6856 14.8417L57.5145 14.235C57.1878 14.4528 56.9855 14.5306 56.7988 14.5306C56.4566 14.5306 56.301 14.235 56.301 13.7528V10.3462ZM52.8782 14.935C52.3026 14.935 51.7892 14.4373 51.7892 13.8773C51.7892 13.2084 52.4115 12.7884 53.1894 12.4617C53.6406 12.275 54.1384 12.1039 54.574 11.9484V14.2817C53.9517 14.7173 53.3761 14.935 52.8782 14.935Z" fill="white"/>
<path d="M60.8558 4.83936H60.3268L57.8997 5.72602V6.09936L59.1288 6.6438V13.7216C59.1288 14.7171 58.8488 15.106 57.9931 15.106H57.8997V15.666H62.0226V15.106H61.9759C61.0891 15.106 60.8558 14.6082 60.8558 13.7994V4.83936Z" fill="white"/>
<path d="M70.3771 12.0573C70.3771 10.0195 68.9146 8.47949 66.7365 8.47949C64.5584 8.47949 62.987 10.0506 62.987 12.1506C62.987 14.3906 64.465 15.8528 66.6743 15.8528C68.9769 15.8528 70.3771 14.1106 70.3771 12.0573ZM66.7832 15.2928C65.6163 15.2928 64.9007 14.0173 64.9007 11.9017C64.9007 9.9106 65.5541 9.03949 66.5965 9.03949C67.7944 9.03949 68.4634 10.2062 68.4634 12.3062C68.4634 14.2973 67.9034 15.2928 66.7832 15.2928Z" fill="white"/>
<path d="M77.7352 8.71283C76.7395 8.71283 75.6349 8.47949 74.8726 8.47949C73.0989 8.47949 71.8075 9.66171 71.8075 11.0306C71.8075 11.855 72.3522 12.5239 73.4723 12.975C72.2433 13.7062 71.8387 14.1573 71.8387 14.7328C71.8387 15.215 72.2277 15.5573 72.9278 15.6817V15.7128C72.3366 16.0084 71.4809 16.475 71.4809 17.2839C71.4809 18.0928 72.5854 18.6373 74.3124 18.6373C77.2062 18.6373 78.4664 17.3773 78.4664 16.2106C78.4664 15.1373 77.3929 14.4217 75.8371 14.4217H74.1412C73.6435 14.4217 73.3168 14.2662 73.3168 13.9239C73.3168 13.6284 73.5346 13.4262 74.0947 13.115C74.2969 13.1462 74.4525 13.1617 74.6547 13.1617C76.0394 13.1617 77.6729 12.2595 77.6729 10.7817C77.6729 10.3617 77.564 10.0195 77.2684 9.52171C77.8129 9.64616 77.9686 9.66171 78.6065 9.66171C78.6998 9.66171 78.8709 9.6306 78.9642 9.61505V8.66616C78.8398 8.68171 78.1708 8.71283 77.7352 8.71283ZM74.7325 12.6017C73.8613 12.6017 73.4723 12.0262 73.4723 10.7195C73.4723 9.41283 73.9391 9.03949 74.7325 9.03949C75.6505 9.03949 76.0238 9.6306 76.0238 10.8595C76.0238 12.0262 75.5882 12.6017 74.7325 12.6017ZM74.5925 18.0773C73.2078 18.0773 72.4921 17.7039 72.4921 17.1284C72.4921 16.6773 72.85 16.2417 73.6124 15.8528C74.0013 15.8839 74.3747 15.8839 74.7636 15.8839H75.8838C76.7551 15.8839 77.424 16.2106 77.424 16.755C77.424 17.5328 76.1794 18.0773 74.5925 18.0773Z" fill="white"/>
<path d="M13.315 16.6345L13.315 6.32471H10.2681H9.22692H7.28244H6.40797H2.98082V16.6345H13.315Z" fill="white"/>
<path d="M14.1337 14.8132L16.8305 7.31491L14.1337 6.36426V14.8132Z" fill="white"/>
<path d="M19.6086 9.14264L17.6066 7.61084L15.0161 15.0255L19.6086 9.14264Z" fill="white"/>
<path d="M11.0783 5.28711L10.9057 5.50811H11.7052L11.0783 5.28711Z" fill="white"/>
<path d="M10.2618 4.99924L8.0408 4.21631L7.57622 5.50806H9.86463L10.2618 4.99924Z" fill="white"/>
<path d="M12.3838 3.61475L11.6082 4.60824L15.4541 5.96394L12.3838 3.61475Z" fill="white"/>
<path d="M11.0783 5.28733L10.2618 4.99951L9.86462 5.50833H10.9057L11.0783 5.28733Z" fill="white"/>
</svg>
