<svg width="33" height="9" viewBox="0 0 33 9" fill="none" xmlns="http://www.w3.org/2000/svg">
<path fill-rule="evenodd" clip-rule="evenodd" d="M0 4.5V9H0.962137H1.92428L1.97705 5.87378L2.02983 2.74755L3.96299 5.86532L5.89616 8.98309L6.91107 8.99155L7.92599 9V4.50881V0.0176123H7.05606H6.18614V3.02636C6.18614 4.97607 6.11731 6.01432 5.99069 5.97593C5.88321 5.94317 4.98409 4.60902 3.99276 3.01104L2.19009 0.105675L1.09514 0.0528374L0 0V4.5ZM10.0525 4.50881V9H11.1157H12.179V4.50881V0.0176123H11.1157H10.0525V4.50881ZM14.3054 4.50881V9H15.1754H16.0453V5.91781C16.0453 4.2226 16.1106 2.83562 16.1903 2.83562C16.2701 2.83562 17.1967 4.2226 18.2491 5.91781L20.1629 9H21.1972H22.2314V4.50881V0.0176123H21.2693H20.3072L20.2544 3.07937L20.2016 6.14131L18.2746 3.07937L16.3476 0.0176123H15.3265H14.3054V4.50881ZM26.427 2.26321C25.9445 3.49838 25.153 5.51924 24.6682 6.7544L23.7869 9H24.8215H25.8559L26.2209 8.07534L26.5857 7.15068H28.404H30.2222L30.5046 8.07534L30.7868 9H31.9427C32.9673 9 33.0829 8.96495 32.9605 8.69178C32.8847 8.52217 32.5789 7.74951 32.281 6.97456C31.9831 6.19961 31.2529 4.33779 30.6585 2.83703C30.0638 1.33626 29.5775 0.0880623 29.5775 0.0630525C29.5775 0.0380427 29.0659 0.0176123 28.4408 0.0176123H27.3041L26.427 2.26321ZM29.0642 3.86524C29.3464 4.72209 29.5775 5.47503 29.5775 5.53843C29.5775 5.60184 29.0555 5.65362 28.4176 5.65362C27.6495 5.65362 27.2577 5.58282 27.2577 5.44403C27.2577 5.09072 28.2958 2.30724 28.4274 2.30724C28.4955 2.30724 28.782 3.0084 29.0642 3.86524Z" fill="white"/>
</svg>
